<mxfile host="Electron" modified="2024-05-06T16:16:07.635Z" agent="Mozilla/5.0 (Windows NT 10.0; Win64; x64) AppleWebKit/537.36 (KHTML, like Gecko) draw.io/24.1.0 Chrome/120.0.6099.109 Electron/28.1.0 Safari/537.36" etag="WF3CEDAZrDb3iUgLjXfl" version="24.1.0" type="device">
  <diagram name="PÃ¡gina-1" id="_conbb5Akr8jmTyMa_w1">
    <mxGraphModel dx="2327" dy="899" grid="1" gridSize="10" guides="1" tooltips="1" connect="1" arrows="1" fold="1" page="1" pageScale="1" pageWidth="827" pageHeight="1169" math="0" shadow="0">
      <root>
        <mxCell id="0" />
        <mxCell id="1" parent="0" />
        <mxCell id="k7wYkkr-rE8dif85HJjs-70" style="edgeStyle=orthogonalEdgeStyle;rounded=0;orthogonalLoop=1;jettySize=auto;html=1;entryX=0.5;entryY=0;entryDx=0;entryDy=0;endArrow=open;endFill=0;endSize=20;dashed=1;dashPattern=12 12;" edge="1" parent="1" source="k7wYkkr-rE8dif85HJjs-2" target="k7wYkkr-rE8dif85HJjs-52">
          <mxGeometry relative="1" as="geometry" />
        </mxCell>
        <mxCell id="k7wYkkr-rE8dif85HJjs-2" value="MinasPython" style="swimlane;fontStyle=1;align=center;verticalAlign=top;childLayout=stackLayout;horizontal=1;startSize=26;horizontalStack=0;resizeParent=1;resizeParentMax=0;resizeLast=0;collapsible=1;marginBottom=0;whiteSpace=wrap;html=1;" vertex="1" parent="1">
          <mxGeometry x="-80" y="80" width="200" height="86" as="geometry" />
        </mxCell>
        <mxCell id="k7wYkkr-rE8dif85HJjs-3" value="- pueblosLibres[ ]: PuebloLibre" style="text;strokeColor=none;fillColor=none;align=left;verticalAlign=top;spacingLeft=4;spacingRight=4;overflow=hidden;rotatable=0;points=[[0,0.5],[1,0.5]];portConstraint=eastwest;whiteSpace=wrap;html=1;" vertex="1" parent="k7wYkkr-rE8dif85HJjs-2">
          <mxGeometry y="26" width="200" height="26" as="geometry" />
        </mxCell>
        <mxCell id="k7wYkkr-rE8dif85HJjs-4" value="" style="line;strokeWidth=1;fillColor=none;align=left;verticalAlign=middle;spacingTop=-1;spacingLeft=3;spacingRight=3;rotatable=0;labelPosition=right;points=[];portConstraint=eastwest;strokeColor=inherit;" vertex="1" parent="k7wYkkr-rE8dif85HJjs-2">
          <mxGeometry y="52" width="200" height="8" as="geometry" />
        </mxCell>
        <mxCell id="k7wYkkr-rE8dif85HJjs-5" value="+ ordenarAtaque(Servidor s): void" style="text;strokeColor=none;fillColor=none;align=left;verticalAlign=top;spacingLeft=4;spacingRight=4;overflow=hidden;rotatable=0;points=[[0,0.5],[1,0.5]];portConstraint=eastwest;whiteSpace=wrap;html=1;" vertex="1" parent="k7wYkkr-rE8dif85HJjs-2">
          <mxGeometry y="60" width="200" height="26" as="geometry" />
        </mxCell>
        <mxCell id="k7wYkkr-rE8dif85HJjs-7" value="PuebloLibre" style="swimlane;fontStyle=1;align=center;verticalAlign=top;childLayout=stackLayout;horizontal=1;startSize=26;horizontalStack=0;resizeParent=1;resizeParentMax=0;resizeLast=0;collapsible=1;marginBottom=0;whiteSpace=wrap;html=1;" vertex="1" parent="1">
          <mxGeometry x="280" y="80" width="200" height="60" as="geometry" />
        </mxCell>
        <mxCell id="k7wYkkr-rE8dif85HJjs-8" value="# habitantes[ ]: Habitante" style="text;strokeColor=none;fillColor=none;align=left;verticalAlign=top;spacingLeft=4;spacingRight=4;overflow=hidden;rotatable=0;points=[[0,0.5],[1,0.5]];portConstraint=eastwest;whiteSpace=wrap;html=1;" vertex="1" parent="k7wYkkr-rE8dif85HJjs-7">
          <mxGeometry y="26" width="200" height="26" as="geometry" />
        </mxCell>
        <mxCell id="k7wYkkr-rE8dif85HJjs-9" value="" style="line;strokeWidth=1;fillColor=none;align=left;verticalAlign=middle;spacingTop=-1;spacingLeft=3;spacingRight=3;rotatable=0;labelPosition=right;points=[];portConstraint=eastwest;strokeColor=inherit;" vertex="1" parent="k7wYkkr-rE8dif85HJjs-7">
          <mxGeometry y="52" width="200" height="8" as="geometry" />
        </mxCell>
        <mxCell id="k7wYkkr-rE8dif85HJjs-11" value="Roham" style="swimlane;fontStyle=1;align=center;verticalAlign=top;childLayout=stackLayout;horizontal=1;startSize=26;horizontalStack=0;resizeParent=1;resizeParentMax=0;resizeLast=0;collapsible=1;marginBottom=0;whiteSpace=wrap;html=1;" vertex="1" parent="1">
          <mxGeometry x="640" y="80" width="200" height="60" as="geometry" />
        </mxCell>
        <mxCell id="k7wYkkr-rE8dif85HJjs-12" value="- montura: Montura" style="text;strokeColor=none;fillColor=none;align=left;verticalAlign=top;spacingLeft=4;spacingRight=4;overflow=hidden;rotatable=0;points=[[0,0.5],[1,0.5]];portConstraint=eastwest;whiteSpace=wrap;html=1;" vertex="1" parent="k7wYkkr-rE8dif85HJjs-11">
          <mxGeometry y="26" width="200" height="26" as="geometry" />
        </mxCell>
        <mxCell id="k7wYkkr-rE8dif85HJjs-13" value="" style="line;strokeWidth=1;fillColor=none;align=left;verticalAlign=middle;spacingTop=-1;spacingLeft=3;spacingRight=3;rotatable=0;labelPosition=right;points=[];portConstraint=eastwest;strokeColor=inherit;" vertex="1" parent="k7wYkkr-rE8dif85HJjs-11">
          <mxGeometry y="52" width="200" height="8" as="geometry" />
        </mxCell>
        <mxCell id="k7wYkkr-rE8dif85HJjs-65" style="edgeStyle=orthogonalEdgeStyle;rounded=0;orthogonalLoop=1;jettySize=auto;html=1;entryX=0.5;entryY=1;entryDx=0;entryDy=0;endArrow=none;endFill=0;" edge="1" parent="1">
          <mxGeometry relative="1" as="geometry">
            <mxPoint x="739.0000000000005" y="280" as="sourcePoint" />
            <mxPoint x="739.0000000000005" y="140" as="targetPoint" />
          </mxGeometry>
        </mxCell>
        <mxCell id="k7wYkkr-rE8dif85HJjs-67" value="&lt;font style=&quot;font-size: 20px;&quot;&gt;*&lt;/font&gt;" style="edgeLabel;html=1;align=center;verticalAlign=middle;resizable=0;points=[];" vertex="1" connectable="0" parent="k7wYkkr-rE8dif85HJjs-65">
          <mxGeometry x="0.549" y="-2" relative="1" as="geometry">
            <mxPoint x="-16" y="-16" as="offset" />
          </mxGeometry>
        </mxCell>
        <mxCell id="k7wYkkr-rE8dif85HJjs-68" value="&lt;font style=&quot;font-size: 20px;&quot;&gt;*&lt;/font&gt;" style="edgeLabel;html=1;align=center;verticalAlign=middle;resizable=0;points=[];" vertex="1" connectable="0" parent="k7wYkkr-rE8dif85HJjs-65">
          <mxGeometry x="-0.4918" y="2" relative="1" as="geometry">
            <mxPoint x="-8" y="19" as="offset" />
          </mxGeometry>
        </mxCell>
        <mxCell id="k7wYkkr-rE8dif85HJjs-15" value="Montura" style="swimlane;fontStyle=1;align=center;verticalAlign=top;childLayout=stackLayout;horizontal=1;startSize=26;horizontalStack=0;resizeParent=1;resizeParentMax=0;resizeLast=0;collapsible=1;marginBottom=0;whiteSpace=wrap;html=1;" vertex="1" parent="1">
          <mxGeometry x="640" y="280" width="200" height="86" as="geometry" />
        </mxCell>
        <mxCell id="k7wYkkr-rE8dif85HJjs-16" value="- nombre: String" style="text;strokeColor=none;fillColor=none;align=left;verticalAlign=top;spacingLeft=4;spacingRight=4;overflow=hidden;rotatable=0;points=[[0,0.5],[1,0.5]];portConstraint=eastwest;whiteSpace=wrap;html=1;" vertex="1" parent="k7wYkkr-rE8dif85HJjs-15">
          <mxGeometry y="26" width="200" height="26" as="geometry" />
        </mxCell>
        <mxCell id="k7wYkkr-rE8dif85HJjs-18" value="- tipo : String" style="text;strokeColor=none;fillColor=none;align=left;verticalAlign=top;spacingLeft=4;spacingRight=4;overflow=hidden;rotatable=0;points=[[0,0.5],[1,0.5]];portConstraint=eastwest;whiteSpace=wrap;html=1;" vertex="1" parent="k7wYkkr-rE8dif85HJjs-15">
          <mxGeometry y="52" width="200" height="26" as="geometry" />
        </mxCell>
        <mxCell id="k7wYkkr-rE8dif85HJjs-17" value="" style="line;strokeWidth=1;fillColor=none;align=left;verticalAlign=middle;spacingTop=-1;spacingLeft=3;spacingRight=3;rotatable=0;labelPosition=right;points=[];portConstraint=eastwest;strokeColor=inherit;" vertex="1" parent="k7wYkkr-rE8dif85HJjs-15">
          <mxGeometry y="78" width="200" height="8" as="geometry" />
        </mxCell>
        <mxCell id="k7wYkkr-rE8dif85HJjs-69" style="edgeStyle=orthogonalEdgeStyle;rounded=0;orthogonalLoop=1;jettySize=auto;html=1;endArrow=diamondThin;endFill=1;endSize=20;" edge="1" parent="1" source="k7wYkkr-rE8dif85HJjs-19">
          <mxGeometry relative="1" as="geometry">
            <mxPoint x="380" y="140" as="targetPoint" />
          </mxGeometry>
        </mxCell>
        <mxCell id="k7wYkkr-rE8dif85HJjs-80" value="&lt;font style=&quot;font-size: 20px;&quot;&gt;1&lt;/font&gt;" style="edgeLabel;html=1;align=center;verticalAlign=middle;resizable=0;points=[];" vertex="1" connectable="0" parent="k7wYkkr-rE8dif85HJjs-69">
          <mxGeometry x="0.7111" relative="1" as="geometry">
            <mxPoint x="18" y="-8" as="offset" />
          </mxGeometry>
        </mxCell>
        <mxCell id="k7wYkkr-rE8dif85HJjs-81" value="&lt;font style=&quot;font-size: 20px;&quot;&gt;1..*&lt;/font&gt;" style="edgeLabel;html=1;align=center;verticalAlign=middle;resizable=0;points=[];" vertex="1" connectable="0" parent="k7wYkkr-rE8dif85HJjs-69">
          <mxGeometry x="-0.7579" y="-6" relative="1" as="geometry">
            <mxPoint x="15" y="2" as="offset" />
          </mxGeometry>
        </mxCell>
        <mxCell id="k7wYkkr-rE8dif85HJjs-19" value="Habitante" style="swimlane;fontStyle=1;align=center;verticalAlign=top;childLayout=stackLayout;horizontal=1;startSize=26;horizontalStack=0;resizeParent=1;resizeParentMax=0;resizeLast=0;collapsible=1;marginBottom=0;whiteSpace=wrap;html=1;" vertex="1" parent="1">
          <mxGeometry x="280" y="280" width="200" height="112" as="geometry" />
        </mxCell>
        <mxCell id="k7wYkkr-rE8dif85HJjs-20" value="# numImplementacion: int" style="text;strokeColor=none;fillColor=none;align=left;verticalAlign=top;spacingLeft=4;spacingRight=4;overflow=hidden;rotatable=0;points=[[0,0.5],[1,0.5]];portConstraint=eastwest;whiteSpace=wrap;html=1;" vertex="1" parent="k7wYkkr-rE8dif85HJjs-19">
          <mxGeometry y="26" width="200" height="26" as="geometry" />
        </mxCell>
        <mxCell id="k7wYkkr-rE8dif85HJjs-23" value="# nombre: String" style="text;strokeColor=none;fillColor=none;align=left;verticalAlign=top;spacingLeft=4;spacingRight=4;overflow=hidden;rotatable=0;points=[[0,0.5],[1,0.5]];portConstraint=eastwest;whiteSpace=wrap;html=1;" vertex="1" parent="k7wYkkr-rE8dif85HJjs-19">
          <mxGeometry y="52" width="200" height="26" as="geometry" />
        </mxCell>
        <mxCell id="k7wYkkr-rE8dif85HJjs-24" value="# edad: int" style="text;strokeColor=none;fillColor=none;align=left;verticalAlign=top;spacingLeft=4;spacingRight=4;overflow=hidden;rotatable=0;points=[[0,0.5],[1,0.5]];portConstraint=eastwest;whiteSpace=wrap;html=1;" vertex="1" parent="k7wYkkr-rE8dif85HJjs-19">
          <mxGeometry y="78" width="200" height="26" as="geometry" />
        </mxCell>
        <mxCell id="k7wYkkr-rE8dif85HJjs-21" value="" style="line;strokeWidth=1;fillColor=none;align=left;verticalAlign=middle;spacingTop=-1;spacingLeft=3;spacingRight=3;rotatable=0;labelPosition=right;points=[];portConstraint=eastwest;strokeColor=inherit;" vertex="1" parent="k7wYkkr-rE8dif85HJjs-19">
          <mxGeometry y="104" width="200" height="8" as="geometry" />
        </mxCell>
        <mxCell id="k7wYkkr-rE8dif85HJjs-57" style="edgeStyle=orthogonalEdgeStyle;rounded=0;orthogonalLoop=1;jettySize=auto;html=1;entryX=0.5;entryY=1;entryDx=0;entryDy=0;endArrow=block;endFill=0;strokeWidth=1;endSize=20;" edge="1" parent="1" source="k7wYkkr-rE8dif85HJjs-25" target="k7wYkkr-rE8dif85HJjs-19">
          <mxGeometry relative="1" as="geometry">
            <Array as="points">
              <mxPoint x="100" y="480" />
              <mxPoint x="380" y="480" />
            </Array>
          </mxGeometry>
        </mxCell>
        <mxCell id="k7wYkkr-rE8dif85HJjs-25" value="LinuxUsers" style="swimlane;fontStyle=1;align=center;verticalAlign=top;childLayout=stackLayout;horizontal=1;startSize=26;horizontalStack=0;resizeParent=1;resizeParentMax=0;resizeLast=0;collapsible=1;marginBottom=0;whiteSpace=wrap;html=1;" vertex="1" parent="1">
          <mxGeometry y="560" width="200" height="60" as="geometry" />
        </mxCell>
        <mxCell id="k7wYkkr-rE8dif85HJjs-30" value="- donaciones[]: Donacion" style="text;strokeColor=none;fillColor=none;align=left;verticalAlign=top;spacingLeft=4;spacingRight=4;overflow=hidden;rotatable=0;points=[[0,0.5],[1,0.5]];portConstraint=eastwest;whiteSpace=wrap;html=1;" vertex="1" parent="k7wYkkr-rE8dif85HJjs-25">
          <mxGeometry y="26" width="200" height="26" as="geometry" />
        </mxCell>
        <mxCell id="k7wYkkr-rE8dif85HJjs-27" value="" style="line;strokeWidth=1;fillColor=none;align=left;verticalAlign=middle;spacingTop=-1;spacingLeft=3;spacingRight=3;rotatable=0;labelPosition=right;points=[];portConstraint=eastwest;strokeColor=inherit;" vertex="1" parent="k7wYkkr-rE8dif85HJjs-25">
          <mxGeometry y="52" width="200" height="8" as="geometry" />
        </mxCell>
        <mxCell id="k7wYkkr-rE8dif85HJjs-59" style="edgeStyle=orthogonalEdgeStyle;rounded=0;orthogonalLoop=1;jettySize=auto;html=1;endArrow=block;endFill=0;endSize=20;" edge="1" parent="1" source="k7wYkkr-rE8dif85HJjs-31">
          <mxGeometry relative="1" as="geometry">
            <mxPoint x="380" y="390" as="targetPoint" />
          </mxGeometry>
        </mxCell>
        <mxCell id="k7wYkkr-rE8dif85HJjs-31" value="WindowsUsers" style="swimlane;fontStyle=1;align=center;verticalAlign=top;childLayout=stackLayout;horizontal=1;startSize=26;horizontalStack=0;resizeParent=1;resizeParentMax=0;resizeLast=0;collapsible=1;marginBottom=0;whiteSpace=wrap;html=1;" vertex="1" parent="1">
          <mxGeometry x="280" y="560" width="200" height="60" as="geometry" />
        </mxCell>
        <mxCell id="k7wYkkr-rE8dif85HJjs-34" value="- virus[]: Virus" style="text;strokeColor=none;fillColor=none;align=left;verticalAlign=top;spacingLeft=4;spacingRight=4;overflow=hidden;rotatable=0;points=[[0,0.5],[1,0.5]];portConstraint=eastwest;whiteSpace=wrap;html=1;" vertex="1" parent="k7wYkkr-rE8dif85HJjs-31">
          <mxGeometry y="26" width="200" height="26" as="geometry" />
        </mxCell>
        <mxCell id="k7wYkkr-rE8dif85HJjs-35" value="" style="line;strokeWidth=1;fillColor=none;align=left;verticalAlign=middle;spacingTop=-1;spacingLeft=3;spacingRight=3;rotatable=0;labelPosition=right;points=[];portConstraint=eastwest;strokeColor=inherit;" vertex="1" parent="k7wYkkr-rE8dif85HJjs-31">
          <mxGeometry y="52" width="200" height="8" as="geometry" />
        </mxCell>
        <mxCell id="k7wYkkr-rE8dif85HJjs-61" style="edgeStyle=orthogonalEdgeStyle;rounded=0;orthogonalLoop=1;jettySize=auto;html=1;entryX=0.5;entryY=1;entryDx=0;entryDy=0;endArrow=diamondThin;endFill=0;startSize=14;endSize=20;" edge="1" parent="1" source="k7wYkkr-rE8dif85HJjs-36" target="k7wYkkr-rE8dif85HJjs-25">
          <mxGeometry relative="1" as="geometry" />
        </mxCell>
        <mxCell id="k7wYkkr-rE8dif85HJjs-78" value="&lt;font style=&quot;font-size: 20px;&quot;&gt;1&lt;/font&gt;" style="edgeLabel;html=1;align=center;verticalAlign=middle;resizable=0;points=[];" vertex="1" connectable="0" parent="k7wYkkr-rE8dif85HJjs-61">
          <mxGeometry x="0.6657" y="2" relative="1" as="geometry">
            <mxPoint x="16" y="-3" as="offset" />
          </mxGeometry>
        </mxCell>
        <mxCell id="k7wYkkr-rE8dif85HJjs-79" value="&lt;font style=&quot;font-size: 20px;&quot;&gt;*&lt;/font&gt;" style="edgeLabel;html=1;align=center;verticalAlign=middle;resizable=0;points=[];" vertex="1" connectable="0" parent="k7wYkkr-rE8dif85HJjs-61">
          <mxGeometry x="-0.6486" y="-3" relative="1" as="geometry">
            <mxPoint x="9" y="11" as="offset" />
          </mxGeometry>
        </mxCell>
        <mxCell id="k7wYkkr-rE8dif85HJjs-36" value="Donaciones" style="swimlane;fontStyle=1;align=center;verticalAlign=top;childLayout=stackLayout;horizontal=1;startSize=26;horizontalStack=0;resizeParent=1;resizeParentMax=0;resizeLast=0;collapsible=1;marginBottom=0;whiteSpace=wrap;html=1;" vertex="1" parent="1">
          <mxGeometry y="720" width="200" height="86" as="geometry" />
        </mxCell>
        <mxCell id="k7wYkkr-rE8dif85HJjs-37" value="- cantidadMonetaria: double" style="text;strokeColor=none;fillColor=none;align=left;verticalAlign=top;spacingLeft=4;spacingRight=4;overflow=hidden;rotatable=0;points=[[0,0.5],[1,0.5]];portConstraint=eastwest;whiteSpace=wrap;html=1;" vertex="1" parent="k7wYkkr-rE8dif85HJjs-36">
          <mxGeometry y="26" width="200" height="26" as="geometry" />
        </mxCell>
        <mxCell id="k7wYkkr-rE8dif85HJjs-38" value="- mensaje: String" style="text;strokeColor=none;fillColor=none;align=left;verticalAlign=top;spacingLeft=4;spacingRight=4;overflow=hidden;rotatable=0;points=[[0,0.5],[1,0.5]];portConstraint=eastwest;whiteSpace=wrap;html=1;" vertex="1" parent="k7wYkkr-rE8dif85HJjs-36">
          <mxGeometry y="52" width="200" height="26" as="geometry" />
        </mxCell>
        <mxCell id="k7wYkkr-rE8dif85HJjs-40" value="" style="line;strokeWidth=1;fillColor=none;align=left;verticalAlign=middle;spacingTop=-1;spacingLeft=3;spacingRight=3;rotatable=0;labelPosition=right;points=[];portConstraint=eastwest;strokeColor=inherit;" vertex="1" parent="k7wYkkr-rE8dif85HJjs-36">
          <mxGeometry y="78" width="200" height="8" as="geometry" />
        </mxCell>
        <mxCell id="k7wYkkr-rE8dif85HJjs-62" style="edgeStyle=orthogonalEdgeStyle;rounded=0;orthogonalLoop=1;jettySize=auto;html=1;entryX=0.5;entryY=1;entryDx=0;entryDy=0;endArrow=none;endFill=0;endSize=20;" edge="1" parent="1" source="k7wYkkr-rE8dif85HJjs-41" target="k7wYkkr-rE8dif85HJjs-31">
          <mxGeometry relative="1" as="geometry" />
        </mxCell>
        <mxCell id="k7wYkkr-rE8dif85HJjs-74" value="&lt;font style=&quot;font-size: 20px;&quot;&gt;*&lt;/font&gt;" style="edgeLabel;html=1;align=center;verticalAlign=middle;resizable=0;points=[];" vertex="1" connectable="0" parent="k7wYkkr-rE8dif85HJjs-62">
          <mxGeometry x="0.5571" relative="1" as="geometry">
            <mxPoint x="12" y="-9" as="offset" />
          </mxGeometry>
        </mxCell>
        <mxCell id="k7wYkkr-rE8dif85HJjs-75" value="&lt;font style=&quot;font-size: 20px;&quot;&gt;*&lt;/font&gt;" style="edgeLabel;html=1;align=center;verticalAlign=middle;resizable=0;points=[];" vertex="1" connectable="0" parent="k7wYkkr-rE8dif85HJjs-62">
          <mxGeometry x="-0.6371" y="-3" relative="1" as="geometry">
            <mxPoint x="8" y="11" as="offset" />
          </mxGeometry>
        </mxCell>
        <mxCell id="k7wYkkr-rE8dif85HJjs-41" value="Virus" style="swimlane;fontStyle=1;align=center;verticalAlign=top;childLayout=stackLayout;horizontal=1;startSize=26;horizontalStack=0;resizeParent=1;resizeParentMax=0;resizeLast=0;collapsible=1;marginBottom=0;whiteSpace=wrap;html=1;" vertex="1" parent="1">
          <mxGeometry x="280" y="720" width="200" height="86" as="geometry" />
        </mxCell>
        <mxCell id="k7wYkkr-rE8dif85HJjs-42" value="- nombre: String" style="text;strokeColor=none;fillColor=none;align=left;verticalAlign=top;spacingLeft=4;spacingRight=4;overflow=hidden;rotatable=0;points=[[0,0.5],[1,0.5]];portConstraint=eastwest;whiteSpace=wrap;html=1;" vertex="1" parent="k7wYkkr-rE8dif85HJjs-41">
          <mxGeometry y="26" width="200" height="26" as="geometry" />
        </mxCell>
        <mxCell id="k7wYkkr-rE8dif85HJjs-44" value="- tipo: String" style="text;strokeColor=none;fillColor=none;align=left;verticalAlign=top;spacingLeft=4;spacingRight=4;overflow=hidden;rotatable=0;points=[[0,0.5],[1,0.5]];portConstraint=eastwest;whiteSpace=wrap;html=1;" vertex="1" parent="k7wYkkr-rE8dif85HJjs-41">
          <mxGeometry y="52" width="200" height="26" as="geometry" />
        </mxCell>
        <mxCell id="k7wYkkr-rE8dif85HJjs-43" value="" style="line;strokeWidth=1;fillColor=none;align=left;verticalAlign=middle;spacingTop=-1;spacingLeft=3;spacingRight=3;rotatable=0;labelPosition=right;points=[];portConstraint=eastwest;strokeColor=inherit;" vertex="1" parent="k7wYkkr-rE8dif85HJjs-41">
          <mxGeometry y="78" width="200" height="8" as="geometry" />
        </mxCell>
        <mxCell id="k7wYkkr-rE8dif85HJjs-60" style="edgeStyle=orthogonalEdgeStyle;rounded=0;orthogonalLoop=1;jettySize=auto;html=1;endArrow=block;endFill=0;entryX=0.5;entryY=0.75;entryDx=0;entryDy=0;entryPerimeter=0;strokeWidth=1;endSize=20;" edge="1" parent="1" source="k7wYkkr-rE8dif85HJjs-45" target="k7wYkkr-rE8dif85HJjs-21">
          <mxGeometry relative="1" as="geometry">
            <mxPoint x="380" y="400" as="targetPoint" />
            <Array as="points">
              <mxPoint x="660" y="480" />
              <mxPoint x="380" y="480" />
            </Array>
          </mxGeometry>
        </mxCell>
        <mxCell id="k7wYkkr-rE8dif85HJjs-45" value="MacUsers" style="swimlane;fontStyle=1;align=center;verticalAlign=top;childLayout=stackLayout;horizontal=1;startSize=26;horizontalStack=0;resizeParent=1;resizeParentMax=0;resizeLast=0;collapsible=1;marginBottom=0;whiteSpace=wrap;html=1;" vertex="1" parent="1">
          <mxGeometry x="560" y="560" width="200" height="60" as="geometry" />
        </mxCell>
        <mxCell id="k7wYkkr-rE8dif85HJjs-46" value="- cartera[]: Dinero" style="text;strokeColor=none;fillColor=none;align=left;verticalAlign=top;spacingLeft=4;spacingRight=4;overflow=hidden;rotatable=0;points=[[0,0.5],[1,0.5]];portConstraint=eastwest;whiteSpace=wrap;html=1;" vertex="1" parent="k7wYkkr-rE8dif85HJjs-45">
          <mxGeometry y="26" width="200" height="26" as="geometry" />
        </mxCell>
        <mxCell id="k7wYkkr-rE8dif85HJjs-47" value="" style="line;strokeWidth=1;fillColor=none;align=left;verticalAlign=middle;spacingTop=-1;spacingLeft=3;spacingRight=3;rotatable=0;labelPosition=right;points=[];portConstraint=eastwest;strokeColor=inherit;" vertex="1" parent="k7wYkkr-rE8dif85HJjs-45">
          <mxGeometry y="52" width="200" height="8" as="geometry" />
        </mxCell>
        <mxCell id="k7wYkkr-rE8dif85HJjs-63" style="edgeStyle=orthogonalEdgeStyle;rounded=0;orthogonalLoop=1;jettySize=auto;html=1;entryX=0.5;entryY=1;entryDx=0;entryDy=0;endArrow=diamondThin;endFill=1;startArrow=none;startFill=0;endSize=20;startSize=20;" edge="1" parent="1" source="k7wYkkr-rE8dif85HJjs-48" target="k7wYkkr-rE8dif85HJjs-45">
          <mxGeometry relative="1" as="geometry" />
        </mxCell>
        <mxCell id="k7wYkkr-rE8dif85HJjs-76" value="&lt;font style=&quot;font-size: 20px;&quot;&gt;1&lt;/font&gt;" style="edgeLabel;html=1;align=center;verticalAlign=middle;resizable=0;points=[];" vertex="1" connectable="0" parent="k7wYkkr-rE8dif85HJjs-63">
          <mxGeometry x="0.5629" y="-3" relative="1" as="geometry">
            <mxPoint x="13" y="-8" as="offset" />
          </mxGeometry>
        </mxCell>
        <mxCell id="k7wYkkr-rE8dif85HJjs-77" value="&lt;font style=&quot;font-size: 20px;&quot;&gt;1000..*&lt;/font&gt;" style="edgeLabel;html=1;align=center;verticalAlign=middle;resizable=0;points=[];" vertex="1" connectable="0" parent="k7wYkkr-rE8dif85HJjs-63">
          <mxGeometry x="-0.6314" y="-3" relative="1" as="geometry">
            <mxPoint x="36" y="2" as="offset" />
          </mxGeometry>
        </mxCell>
        <mxCell id="k7wYkkr-rE8dif85HJjs-48" value="Dinero" style="swimlane;fontStyle=1;align=center;verticalAlign=top;childLayout=stackLayout;horizontal=1;startSize=26;horizontalStack=0;resizeParent=1;resizeParentMax=0;resizeLast=0;collapsible=1;marginBottom=0;whiteSpace=wrap;html=1;" vertex="1" parent="1">
          <mxGeometry x="560" y="720" width="200" height="86" as="geometry" />
        </mxCell>
        <mxCell id="k7wYkkr-rE8dif85HJjs-49" value="- nombreMoneda: String" style="text;strokeColor=none;fillColor=none;align=left;verticalAlign=top;spacingLeft=4;spacingRight=4;overflow=hidden;rotatable=0;points=[[0,0.5],[1,0.5]];portConstraint=eastwest;whiteSpace=wrap;html=1;" vertex="1" parent="k7wYkkr-rE8dif85HJjs-48">
          <mxGeometry y="26" width="200" height="26" as="geometry" />
        </mxCell>
        <mxCell id="k7wYkkr-rE8dif85HJjs-50" value="- cantidad: double" style="text;strokeColor=none;fillColor=none;align=left;verticalAlign=top;spacingLeft=4;spacingRight=4;overflow=hidden;rotatable=0;points=[[0,0.5],[1,0.5]];portConstraint=eastwest;whiteSpace=wrap;html=1;" vertex="1" parent="k7wYkkr-rE8dif85HJjs-48">
          <mxGeometry y="52" width="200" height="26" as="geometry" />
        </mxCell>
        <mxCell id="k7wYkkr-rE8dif85HJjs-51" value="" style="line;strokeWidth=1;fillColor=none;align=left;verticalAlign=middle;spacingTop=-1;spacingLeft=3;spacingRight=3;rotatable=0;labelPosition=right;points=[];portConstraint=eastwest;strokeColor=inherit;" vertex="1" parent="k7wYkkr-rE8dif85HJjs-48">
          <mxGeometry y="78" width="200" height="8" as="geometry" />
        </mxCell>
        <mxCell id="k7wYkkr-rE8dif85HJjs-52" value="Servidor" style="swimlane;fontStyle=1;align=center;verticalAlign=top;childLayout=stackLayout;horizontal=1;startSize=26;horizontalStack=0;resizeParent=1;resizeParentMax=0;resizeLast=0;collapsible=1;marginBottom=0;whiteSpace=wrap;html=1;" vertex="1" parent="1">
          <mxGeometry x="-80" y="280" width="200" height="112" as="geometry" />
        </mxCell>
        <mxCell id="k7wYkkr-rE8dif85HJjs-53" value="- empresaOscura: String" style="text;strokeColor=none;fillColor=none;align=left;verticalAlign=top;spacingLeft=4;spacingRight=4;overflow=hidden;rotatable=0;points=[[0,0.5],[1,0.5]];portConstraint=eastwest;whiteSpace=wrap;html=1;" vertex="1" parent="k7wYkkr-rE8dif85HJjs-52">
          <mxGeometry y="26" width="200" height="26" as="geometry" />
        </mxCell>
        <mxCell id="k7wYkkr-rE8dif85HJjs-54" value="- pais: String" style="text;strokeColor=none;fillColor=none;align=left;verticalAlign=top;spacingLeft=4;spacingRight=4;overflow=hidden;rotatable=0;points=[[0,0.5],[1,0.5]];portConstraint=eastwest;whiteSpace=wrap;html=1;" vertex="1" parent="k7wYkkr-rE8dif85HJjs-52">
          <mxGeometry y="52" width="200" height="26" as="geometry" />
        </mxCell>
        <mxCell id="k7wYkkr-rE8dif85HJjs-55" value="- nodosAPais: int" style="text;strokeColor=none;fillColor=none;align=left;verticalAlign=top;spacingLeft=4;spacingRight=4;overflow=hidden;rotatable=0;points=[[0,0.5],[1,0.5]];portConstraint=eastwest;whiteSpace=wrap;html=1;" vertex="1" parent="k7wYkkr-rE8dif85HJjs-52">
          <mxGeometry y="78" width="200" height="26" as="geometry" />
        </mxCell>
        <mxCell id="k7wYkkr-rE8dif85HJjs-56" value="" style="line;strokeWidth=1;fillColor=none;align=left;verticalAlign=middle;spacingTop=-1;spacingLeft=3;spacingRight=3;rotatable=0;labelPosition=right;points=[];portConstraint=eastwest;strokeColor=inherit;" vertex="1" parent="k7wYkkr-rE8dif85HJjs-52">
          <mxGeometry y="104" width="200" height="8" as="geometry" />
        </mxCell>
        <mxCell id="k7wYkkr-rE8dif85HJjs-64" style="edgeStyle=orthogonalEdgeStyle;rounded=0;orthogonalLoop=1;jettySize=auto;html=1;entryX=1.011;entryY=0.126;entryDx=0;entryDy=0;entryPerimeter=0;endArrow=block;endFill=0;endSize=20;" edge="1" parent="1" source="k7wYkkr-rE8dif85HJjs-11" target="k7wYkkr-rE8dif85HJjs-8">
          <mxGeometry relative="1" as="geometry" />
        </mxCell>
        <mxCell id="k7wYkkr-rE8dif85HJjs-71" style="edgeStyle=orthogonalEdgeStyle;rounded=0;orthogonalLoop=1;jettySize=auto;html=1;entryX=1.034;entryY=0.17;entryDx=0;entryDy=0;entryPerimeter=0;endArrow=none;endFill=0;" edge="1" parent="1" source="k7wYkkr-rE8dif85HJjs-7" target="k7wYkkr-rE8dif85HJjs-3">
          <mxGeometry relative="1" as="geometry" />
        </mxCell>
        <mxCell id="k7wYkkr-rE8dif85HJjs-72" value="&lt;font style=&quot;font-size: 20px;&quot;&gt;1&lt;/font&gt;" style="edgeLabel;html=1;align=center;verticalAlign=middle;resizable=0;points=[];" vertex="1" connectable="0" parent="k7wYkkr-rE8dif85HJjs-71">
          <mxGeometry x="-0.7266" y="1" relative="1" as="geometry">
            <mxPoint x="8" y="-16" as="offset" />
          </mxGeometry>
        </mxCell>
        <mxCell id="k7wYkkr-rE8dif85HJjs-73" value="&lt;font style=&quot;font-size: 20px;&quot;&gt;1&lt;/font&gt;" style="edgeLabel;html=1;align=center;verticalAlign=middle;resizable=0;points=[];" vertex="1" connectable="0" parent="k7wYkkr-rE8dif85HJjs-71">
          <mxGeometry x="0.8482" y="5" relative="1" as="geometry">
            <mxPoint x="-7" y="-24" as="offset" />
          </mxGeometry>
        </mxCell>
        <mxCell id="k7wYkkr-rE8dif85HJjs-82" value="" style="text;strokeColor=none;fillColor=none;align=left;verticalAlign=middle;spacingTop=-1;spacingLeft=4;spacingRight=4;rotatable=0;labelPosition=right;points=[];portConstraint=eastwest;" vertex="1" parent="1">
          <mxGeometry x="-160" width="20" height="14" as="geometry" />
        </mxCell>
        <mxCell id="k7wYkkr-rE8dif85HJjs-83" value="" style="text;strokeColor=none;fillColor=none;align=left;verticalAlign=middle;spacingTop=-1;spacingLeft=4;spacingRight=4;rotatable=0;labelPosition=right;points=[];portConstraint=eastwest;" vertex="1" parent="1">
          <mxGeometry x="900" width="20" height="14" as="geometry" />
        </mxCell>
        <mxCell id="k7wYkkr-rE8dif85HJjs-84" value="" style="text;strokeColor=none;fillColor=none;align=left;verticalAlign=middle;spacingTop=-1;spacingLeft=4;spacingRight=4;rotatable=0;labelPosition=right;points=[];portConstraint=eastwest;" vertex="1" parent="1">
          <mxGeometry x="-80" y="870" width="20" height="14" as="geometry" />
        </mxCell>
        <mxCell id="k7wYkkr-rE8dif85HJjs-85" value="" style="text;strokeColor=none;fillColor=none;align=left;verticalAlign=middle;spacingTop=-1;spacingLeft=4;spacingRight=4;rotatable=0;labelPosition=right;points=[];portConstraint=eastwest;" vertex="1" parent="1">
          <mxGeometry x="820" y="860" width="20" height="14" as="geometry" />
        </mxCell>
        <mxCell id="k7wYkkr-rE8dif85HJjs-86" value="" style="shape=image;verticalLabelPosition=bottom;labelBackgroundColor=default;verticalAlign=top;aspect=fixed;imageAspect=0;image=data:image/svg+xml,PHN2ZyB4bWxucz0iaHR0cDovL3d3dy53My5vcmcvMjAwMC9zdmciIHByZXNlcnZlQXNwZWN0UmF0aW89InhNaWRZTWlkIG1lZXQiIHZpZXdCb3g9IjAgLTAuMDAwMDE1ODY5NzM2NjcxNDQ3NzU0IDEwMDAgMTA2NSIgaGVpZ2h0PSIxMDY1IiB3aWR0aD0iMTAwMCIgdmVyc2lvbj0iMS4wIj4mI3hhOyYjeGE7PGcgc3Ryb2tlPSJub25lIiBmaWxsPSIjMDAwMDAwIiB0cmFuc2Zvcm09InRyYW5zbGF0ZSgwLjAwMDAwMCwxMDY1LjAwMDAwMCkgc2NhbGUoMC4xMDAwMDAsLTAuMTAwMDAwKSI+JiN4YTs8cGF0aCBkPSJNMCA4ODE1IGMwIC0xNDMzIDMgLTE4NDAgMTIgLTE4NTUgOSAtMTQgMTAgLTI3IDIgLTQ4IC0xMyAtMzMgLTE5JiMxMDstMjYyIC03IC0yNjIgNCAwIDI4IDYgNTMgMTQgNDggMTQgNTcgMjkgNTkgMTAwIDEgMjQgOCA0NSAxOSA1NSAxMCA5IDI1IDMyJiMxMDszNCA1MSA5IDE5IDI1IDQzIDM1IDUyIDEwIDkgMjMgMjMgMzAgMzIgNyA4IDM4IDIwIDcwIDI3IDY0IDE0IDgyIDI0IDkzIDU0IDYmIzEwOzE3IDggMTYgMTUgLTE0IDEwIC00NyAtMTEgLTg0IC00NCAtNzggLTE2IDMgLTMyIC0zIC00OCAtMTkgLTIwIC0yMCAtMjIgLTI2JiMxMDstMTEgLTUxIDE0IC0zMyAzOCAtNjMgNTAgLTYzIDQgMCAzMiAtMTkgNjEgLTQyIDI4IC0yNCA3MSAtNTIgOTQgLTYyIDMzIC0xNSYjMTA7NDMgLTI1IDQzIC00MyAwIC0xNSA5IC0yNyAyNCAtMzQgMTggLTkgMjUgLTIxIDI4IC01MyA1IC00NyAtOSAtOTggLTIxIC03OCYjMTA7LTQgNyAtMTIgMTIgLTE3IDExIC0xOCAtNSAtNTQgMTMgLTU1IDI3IC0xIDggLTMgMTkgLTQgMjQgLTEgNiAtMyAxNCAtNCAxOSYjMTA7LTIgMTkgLTcxIDQwIC0xNjYgNTEgLTE3NiAyMSAtMjA1IDIyIC0yMzUgMTEgLTIxIC03IC0zMCAtNyAtMzAgMCAwIDYgLTE0IC0xJiMxMDstMzEgLTE1IC0xNyAtMTQgLTM1IC0yNiAtNDAgLTI2IC01IDAgLTkgLTcgLTkgLTE1IDAgLTggNSAtMTUgMTIgLTE1IDkgMCA5JiMxMDstMyAwIC0xMiAtNyAtNyAtMTIgLTQzIC0xMiAtOTAgbDAgLTc4IDQyIDAgYzI5IDAgNTEgOCA3NSAyNiAxOSAxNCAzNyAyNCA0MCYjMTA7MjAgMyAtMyAxMyA0IDIyIDE0IDExIDE0IDIzIDE4IDM5IDE0IDI2IC03IDI5IC0xOSA3IC0yOCAtOSAtMyAtMjQgLTI1IC0zNCYjMTA7LTQ4IC0xMCAtMjQgLTI2IC00OSAtMzUgLTU3IC0xOCAtMTUgLTIyIC01MSAtNiAtNTEgNiAwIDIyIDcgMzUgMTYgMTMgOCAzNCYjMTA7MTQgNDcgMTIgMjAgLTMgMjMgLTggMjAgLTQzIC00IC02NSAtMTAgLTc5IC01MyAtMTEwIC0yMiAtMTYgLTQ5IC0zOCAtNjAgLTQ4JiMxMDstMTEgLTEwIC0zNCAtMjYgLTUyIC0zNiAtMTggLTEwIC0zOCAtMjggLTQ0IC00MiAtMTUgLTI5IC0xNyAtODggLTMgLTEwOSA5JiMxMDstMTMgMTMgLTEyIDI5IDcgMjAgMjMgNTEgMzEgNTEgMTMgMCAtNSA4IC0xOCAxOCAtMjggMjYgLTI2IDM3IC04MiAxNyAtODIgLTgmIzEwOzAgLTE1IC03IC0xNSAtMTUgMCAtMjEgLTUzIC00NSAtMTAwIC00NSAtMzkgMCAtNDAgMCAtNDAgLTM3IDAgLTI4IDcgLTQyIDMwJiMxMDstNjMgMzUgLTMxIDMyIC02MCAtNiAtNjAgbC0yMyAwIC0xIC0yODA1IDAgLTI4MDUgNTAwMCAwIDUwMDAgMCAtMiA0NjgyIC0zJiMxMDs0NjgzIC0yNSAxIGMtODUgMiAtODEgMCAtMTA2IDY5IC0yMyA2NyA0IDk1IDU3IDU2IDE1IC0xMiA0MCAtMjEgNTMgLTIxIGwyNiYjMTA7MCAtMSAyMDkgMCAyMTAgLTQyIDMgYy0zMSAyIC00MiA3IC00MyAyMSAtMSAxMiAtMSAxMyAzIDIgMyAtMTAgMTcgLTE1IDQ0JiMxMDstMTUgbDM5IDAgMCAzNzUgMCAzNzUgLTUwMDAgMCAtNTAwMCAwIDAgLTE4MzV6IG03MjM0IDE2MzYgYzE5IC03IDE4IC04IC00JiMxMDstMTQgLTI1IC02IC00MCAtMiAtNDAgMTQgMCAxMSAxNyAxMSA0NCAweiBtLTIwMyAtMjY4IGMxNyAtNDcgNDMgLTkzIDU0IC05NCYjMTA7NSAtMSAzMCAtMyA1NSAtNSAyNSAtMiA3OCAtMTYgMTE4IC0zMCA3NyAtMjcgMTI4IC0yNiAxMzkgMyA5IDIyIDIzIC00IDIzJiMxMDstNDMgMCAtMzUgLTE5IC01NyAtMzggLTQ1IC04IDUgLTI0IC0yIC00MyAtMjAgLTM4IC0zNiAtODQgLTQ2IC0xMDggLTI1IC0xMCYjMTA7OSAtMzUgMTYgLTYwIDE2IC01MyAwIC0xMzMgNDAgLTE0OSA3NCAtNiAxNSAtMjggMzYgLTQ3IDQ4IC00OCAyOCAtNjggNzQgLTQ2JiMxMDsxMDggMjEgMzMgMzEgNDAgNjQgNDAgMjEgMCAzMCAtNiAzOCAtMjd6IG0yODk3IC0xMTQgYzEwIC0xNSAxMSAtMjQgMyAtMzIgLTYmIzEwOy02IC0xMSAtMjIgLTExIC0zNSAwIC0yMCAtNCAtMjMgLTIyIC0xOCAtMTMgMyAtMzEgNiAtNDAgNiAtMTAgMCAtMTggNSAtMTgmIzEwOzEwIDAgNiA5IDEwIDIwIDEwIDE0IDAgMjIgMTEgMzEgNDAgMTQgNDYgMTkgNDggMzcgMTl6IG0tMzEyMCAtNDA2IGMyIC0yOCAwJiMxMDstMzUgLTggLTI3IC0xNiAxNiAtMjAgNjQgLTYgNjQgNyAwIDEzIC0xNyAxNCAtMzd6IG0zMTgyIDIzIGMwIC0yIC0zIC0xMSAtNiYjMTA7LTIwIC05IC0yMyAtMjQgLTIwIC0yNCA0IDAgMTEgNyAyMCAxNSAyMCA4IDAgMTUgLTIgMTUgLTR6IG0tMjgzIC04NiBjMTEgLTQyJiMxMDsxOCAtMjEwIDkgLTIxMCAtMTYgMCAtMzYgMTQgLTM2IDI1IDAgOCAtOSAxNyAtMjAgMjAgLTExIDQgLTE4IDEwIC0xNSAxNSAzIDQmIzEwOy02IDMgLTIwIC0zIC0xNCAtNyAtMjUgLTE3IC0yNSAtMjQgMCAtOCAtOSAtNyAtMzAgMyAtMTYgOSAtMzAgMjEgLTMwIDI5IDAgNyYjMTA7LTcgMTkgLTE2IDI2IC0yMiAxOCAtMTIgNzAgMjEgMTAzIDE0IDE0IDI5IDI2IDMzIDI2IDQgMCAxNSA5IDI1IDIxIDEzIDE1IDI3JiMxMDsxOSA1NSAxNyAzNSAtMyAzOCAtNiA0OSAtNDh6IG0tNDM1MCAtMzIyIGMtMyAtNyAtNSAtMiAtNSAxMiAwIDE0IDIgMTkgNSAxMyYjMTA7MiAtNyAyIC0xOSAwIC0yNXogbS05MiAtNzAgYzggLTE5IDE4IC0yMyA1MiAtMjMgNDIgMCA5MyAtMzMgOTMgLTYxIDAgLTcgMTMmIzEwOy0xNSAyOCAtMTkgMTYgLTMgNTUgLTMxIDg4IC02MiBsNTkgLTU2IC00MCA3IGMtMjIgNCAtNDkgOCAtNjAgMTAgLTI5IDUgLTg1JiMxMDszNiAtODUgNDYgMCAxMiAtNTQgNDAgLTc1IDQwIC0yNiAwIC05NSA1MyAtOTUgNzMgMCA5IC03IDE3IC0xNSAxNyAtOCAwIC0xNSYjMTA7NCAtMTUgMTAgMCA1IDggNiAxNyAzIDEyIC01IDE1IC0yIDEwIDkgLTEyIDM0IDI0IDM5IDM4IDZ6IG0yNjYwIC01OCBjNCAtNiYjMTA7LTUgLTEwIC0xOSAtMTAgLTE0IDAgLTI2IDUgLTI2IDEwIDAgNiA5IDEwIDE5IDEwIDExIDAgMjMgLTQgMjYgLTEweiBtODkgLTQ4JiMxMDtjMiAtNCAxIC0yMyAtNCAtNDIgLTQgLTE5IC04IC0yOCAtOSAtMTkgLTEgOSAtOCAyMiAtMTYgMjkgLTIxIDE4IC0xOSA0MCA0JiMxMDs0MCAxMSAwIDIyIC0zIDI1IC04eiBtLTM0NDMgLTI1MiBjMTYgMCAzNyAtOCA0NyAtMTcgMTAgLTEwIDI1IC0xOSAzMiAtMjEgOCYjMTA7LTIgMjUgLTExIDM5IC0yMSAxOCAtMTMgMzIgLTE2IDQ2IC0xMCAzMyAxMyA5MCAxMCAxMTEgLTYgMTAgLTggMjkgLTE1IDQxJiMxMDstMTUgMTEgMCA1MCAtMTMgODUgLTI5IDg4IC0zOSAxMTYgLTEwMCA0NSAtMTAxIC0xMCAwIC0yOSAtOCAtNDQgLTE3IC0zNiAtMjQmIzEwOy0yMTEgLTM2IC01MzggLTM3IC0xOTcgLTEgLTI3OCAtNCAtMjk5IC0xNCAtNDcgLTIxIC0xNSAtMzkgOTIgLTUzIDEyMCAtMTYmIzEwOzk3IC0yNSAtODQgLTMzIC0yMzcgLTExIC0yNjYgLTIxIC0xODMgLTYwIGw0MCAtMjAgLTI1IC0xMyBjLTE0IC04IC0yNiAtMTgmIzEwOy0yNiAtMjMgMCAtNSAtMTAgLTkgLTIyIC04IC0xMyAwIC00NyAtOSAtNzYgLTIxIC0yOSAtMTEgLTYxIC0yMSAtNzEgLTIxIC05JiMxMDswIC0yNyAtMTEgLTM5IC0yNSAtMTIgLTE0IC0zMSAtMjUgLTQyIC0yNSAtMTEgMCAtMjAgLTQgLTIwIC0xMCAwIC01IC0xNyAtMTImIzEwOy0zNyAtMTYgLTIxIC00IC01OSAtMjQgLTg2IC00NSAtMjcgLTIxIC02NyAtNDcgLTkwIC01NyAtMjMgLTExIC01NyAtMzMgLTc2JiMxMDstNTAgLTE4IC0xOCAtNDAgLTMyIC00OCAtMzIgLTggMCAtMjcgLTE0IC00MyAtMzIgLTI1IC0yNyAtMjcgLTM0IC0xNSAtNDEgMTgmIzEwOy0xMCAxOSAtMzcgNCAtNzAgLTEwIC0yMiAtNDcgLTQ2IC0xNDYgLTk2IC0zMiAtMTYgLTQyIC0zMCAtMjMgLTMyIDYgLTEgMTUmIzEwOy0zIDIwIC00IDYgLTEgMTUgLTMgMjAgLTQgMjQgLTMgMCAtOTEgLTI1IC05MSAtMTIgMCAtNDkgLTUyIC02MyAtODkgLTggLTIxJiMxMDstMTMgLTcxIC0xMiAtMTE4IDAgLTQ3IC00IC04NCAtMTAgLTg4IC01IC0zIC0xMCAwIC0xMCA4IDAgMjQgLTEwNCAzOCAtMTEyJiMxMDsxNSAtMTAgLTMwIDggLTczIDM1IC04NiAyNSAtMTIgMjcgLTE3IDIwIC00NSAtMTEgLTQzIC03IC0xMjcgNyAtMTQxIDYgLTYgMjkmIzEwOy0xMSA1MCAtMTIgNTIgMCA4NyAtMjAgOTQgLTUzIDQgLTIxIC0zIC0zMyAtMzYgLTY0IC0zNSAtMzMgLTQ1IC0zOCAtNzIgLTMzJiMxMDstMjggNSAtMzggMCAtODkgLTQ4IC0zMSAtMzAgLTU3IC02MSAtNTcgLTcwIDAgLTkgLTEyIC0yMyAtMjcgLTMzIC0xNiAtMTAmIzEwOy0zNCAtMjMgLTQxIC0zMCAtNyAtNyAtMjEgLTEzIC0zMSAtMTMgLTIzIDAgLTY3IC00NiAtNTAgLTUyIDcgLTIgMTMgLTIyIDE0JiMxMDstNDQgMiAtMjMgMTAgLTUyIDE5IC02NiAxMCAtMTYgMTUgLTM1IDExIC00OSAtNSAtMjAgNCAtMzMgNDkgLTczIDUyIC00NiA1NSYjMTA7LTUyIDY3IC0xMTggMTMgLTcwIDI0IC05MiAzNSAtNjQgMyA5IDEyIDE2IDIwIDE2IDE1IDAgMTcgNyAxNCA2MCAtMSAzNSA5IDUxJiMxMDs2NCA5NyAxNCAxMyAyNiAzMiAyNiA0NCAwIDE4IDQgMjAgMjYgMTUgMTcgLTUgNDQgMiA4MSAxOSAzMCAxNCA2MyAyNSA3MiAyNSYjMTA7OSAwIDMwIDkgNDYgMjAgNDEgMjcgODggMjYgMTIyIC01IDQ3IC00MSA1MiAtNDUgNjIgLTQ1IDI0IDAgMTAyIDQxIDEwOCA1NyAzJiMxMDsxMCAxNCAyNSAyMyAzNCAxNSAxNSAyMyAxNSA2NSA0IDI3IC02IDU4IC0yMiA2OSAtMzYgMTkgLTIyIDY5IC01OSA4MCAtNTkgMiYjMTA7MCAxMyAxNiAyNSAzNSAxNiAyNyAyNyAzNSA0OSAzNSA0MiAwIDY2IC0yMSA1OCAtNTMgLTcgLTMwIC0zMCAtMzkgLTEwMSAtNDImIzEwOy0xMTQgLTUgLTIwMyAtMTcgLTI0MyAtMzIgLTMyIC0xMSAtNTAgLTEzIC02NSAtNSAtNjYgMzAgLTgwIDMzIC04OCAyMCAtMzgmIzEwOy02MiAtOTAgLTExOCAtMTA4IC0xMTggLTI2IDAgLTgzIC0zMSAtMTAyIC01NCAtOSAtMTIgLTQ2IC0zNiAtODMgLTU1IC0zNiYjMTA7LTE4IC02NiAtMzggLTY2IC00MiAwIC01IC03IC05IC0xNSAtOSAtMTQgMCAtNTUgLTM1IC04MyAtNzIgLTggLTEwIC0xMCAtMjcmIzEwOy02IC00MyA2IC0yNiA5IC0yNyA1MyAtMjAgMzAgNCA1MyAxNSA2NiAzMCAxMSAxNCAzMSAyNSA0NSAyNiA2NSA1IDgwIC0xMCAzMSYjMTA7LTMxIC0xNiAtNiAtNDggLTMyIC03MSAtNTYgbC00MiAtNDUgLTg2IDYgYy00NyAzIC04OCA3IC05MCAxMCAtNCA0IC05IDQyJiMxMDstMTEgOTIgLTEgNiAtMTEgMTUgLTIzIDE5IC0zMCA5IC00OSAzNiAtMzcgNTAgNSA2IDEwIDM1IDEwIDYzIDIgNTkgLTE5IDg5JiMxMDstODMgMTIyIC01MyAyNyAtODggMjQgLTEyMyAtMTEgLTE2IC0xNiAtNDYgLTQ0IC02NiAtNjMgLTMxIC0yOCAtMzcgLTQwIC0zNyYjMTA7LTc2IC0xIC0yNCAtNiAtNDkgLTExIC01NCAtNiAtNiAtMTEgLTI5IC0xMSAtNTAgMCAtMzAgNiAtNDQgMjUgLTU5IDE0IC0xMSYjMTA7MjUgLTIyIDI1IC0yNiAwIC0xMyAtNDUgLTU5IC03NyAtNzcgLTE4IC0xMSAtMzMgLTIzIC0zMyAtMjggMCAtNCAyMSAtMTcgNDcmIzEwOy0yOSAyNyAtMTEgNDkgLTIyIDUxIC0yMyAxMSAtOSAtMjQgLTU3IC01MiAtNzAgLTE5IC05IC00MiAtMjcgLTUwIC00MCAtOSYjMTA7LTEzIC0yNSAtMjUgLTM3IC0yNyAtMTMgLTIgLTI0IC05IC0yNyAtMTUgLTUgLTE2IDY0IC0xOCA3MyAtMyA2IDEwIDEwNyAxNCYjMTA7MTE3IDQgOSAtOSAtMjIgLTY0IC0zNiAtNjQgLTcgMCAtMzMgLTEzIC01NyAtMzAgLTI0IC0xNiAtNTQgLTMwIC02NiAtMzAgLTI3JiMxMDswIC00NCAtMjUgLTc0IC0xMDUgLTEyIC0zMyAtMjcgLTYzIC0zMiAtNjcgLTE0IC04IDcwIC0zMSA4NCAtMjIgNiAzIDggMTkgNSYjMTA7MzUgLTUgMjcgMTMgNTkgMzQgNTkgNSAwIDE2IDcgMjUgMTcgMTAgOSAyMCAxMiAyMyA3IDQgLTYgMzMgLTI1IDY2IC00MyAzMiYjMTA7LTE4IDcwIC00NCA4NSAtNTcgMTQgLTE0IDM3IC0yNyA1MSAtMzEgMzcgLTkgNTAgLTIyIDUwIC01MyAwIC0yNiAyMCAtNTIgNTAmIzEwOy02MyA4IC0zIC0xNSAtNiAtNTEgLTYgLTUwIC0xIC03MCAzIC04MCAxNSAtNyA5IC0yNCAyMCAtMzcgMjUgLTIwIDggLTIyIDEzJiMxMDstMTcgNDMgNiAyOSAzIDM2IC0xNSA0NiAtMTMgNyAtMzcgOSAtNTkgNSAtMjAgLTMgLTU1IC02IC03OCAtNiAtMzEgMSAtNDMgLTMmIzEwOy00MyAtMTMgMCAtMTYgMjEgLTI2IDUzIC0yNiAxMiAwIDMyIC04IDQ0IC0xOCAzNSAtMjcgMjAgLTY4IC0zNiAtMTAxIC01NyYjMTA7LTMyIC0xMDkgLTg0IC0xMTcgLTExNyAtMyAtMTMgLTEwIC0yMiAtMTUgLTE5IC0yMiAxNCAtNDMgLTg1IC0yMiAtMTA2IDE0JiMxMDstMTQgNDAgLTEgNDYgMjIgMyAxMSAxNSAyMyAyNiAyNiAxMiAzIDIxIDExIDIxIDE3IDAgMTggNjUgNDYgMTA0IDQ2IDQ3IDAgNjMmIzEwOy0yMiA0MiAtNTUgLTkgLTE0IC0yMyAtMjUgLTMyIC0yNSAtMTQgMCAtMTQgLTIgLTEgLTE1IDEyIC0xMSAxMyAtMjQgNSAtNjImIzEwOy02IC0yNiAtMTYgLTU1IC0yNCAtNjQgLTggLTkgLTExIC0xOSAtOCAtMjIgNCAtNCAxIC0xMyAtNiAtMjIgLTE0IC0xNyAtMSYjMTA7LTQwIDMwIC01MCAxMSAtMyAyMyAtMjYgMzMgLTYzIDU0IC0xOTYgNjcgLTI0OSA2NyAtMjY3IDAgLTExIDEzIC01MCAyOSAtODcmIzEwOzE2IC0zOCAyNyAtNjggMjQgLTY4IC0yIDAgMyAtNyAxMSAtMTYgMjAgLTIwIDIwIC02MSAwIC05OSAtOSAtMTYgLTE2IC01NCYjMTA7LTE3IC04MyAwIC00MSA1IC01NiAyMiAtNzEgMjkgLTI1IDI4IC02OSAtMSAtNzYgLTU2IC0xMiAtNzggLTkgLTc4IDEwIDAgOSYjMTA7LTkgMTUgLTI1IDE1IC0zMCAwIC0zMyAtMjQgLTggLTUzIDIwIC0yMSAyNCAtMTE0IDYgLTEyNSAtNiAtNCAtMTggLTIxIC0yNyYjMTA7LTM5IC05IC0xOCAtMjUgLTM3IC0zNSAtNDMgLTI4IC0xNSAtNzEgLTEzIC03MSA0IDAgNyAtMTQgMTkgLTMxIDI2IC0zOCAxNiYjMTA7LTUyIDUwIC00MyAxMDggNiA0MSA4IDQ0IDIwIDI3IDggLTEwIDE0IC0yOSAxNCAtNDIgMCAtMTMgNCAtMjMgMTAgLTIzIDE2IDAmIzEwOzMwIDM3IDI3IDcyIC0yIDI3IC02IDMyIC0yNCAzMCAtMTIgLTIgLTM4IDYgLTU5IDE4IC0yMiAxMSAtNDQgMjAgLTUwIDIwIC03JiMxMDswIC0xNCA4IC0xOCAxOCAtMyA5IC0xNSAzMiAtMjYgNTAgLTE2IDI2IC0yMCA0NyAtMTggMTAwIDIgNDggLTIgNzcgLTE1IDEwMSYjMTA7LTkgMTkgLTE3IDQyIC0xNyA1MyAwIDEwIC02IDE4IC0xMyAxOCAtMTQgMCAtNDcgMTQ5IC00NyAyMTQgMCAyMCAtNyA0OCAtMTYmIzEwOzYxIC0xNyAyNiAtMjAgMTU0IC04IDMzNSA3IDExMyAzNiAyNTUgNTQgMjcwIDQgMyAxMiAzMSAxOCA2MyA2IDMxIDIzIDc0IDM2JiMxMDs5NCAyMyAzMyAyNSA0MyAxOSAxMDggLTUgNTkgLTIgNzYgMTUgMTA5IDIwIDM3IDUyIDc1IDg5IDEwNiAxNyAxNCAxNiAxNSAtMTUmIzEwOzE4IGwtMzIgMyAwIDExOSBjMCAxMDggMiAxMjMgMjYgMTcwIDIyIDQzIDI0IDU2IDE1IDc3IC05IDE5IC03IDMyIDggNjQgMzAmIzEwOzYxIDM1IDExMyAxNiAxNDMgLTEzIDIwIC0xNSAzNyAtMTAgNzMgNyA1MCA4IDEyMCAzIDIzMyAtMiA1OCAxMyAxMjQgMzMgMTQwJiMxMDszIDMgOSA0NiAxMyA5NSA0IDUwIDEyIDkyIDE3IDkzIDUgMiA5IDEyIDkgMjIgMCAxMCA0IDIxIDkgMjQgNCAzIDEwIDM4IDEzJiMxMDs3OCAzIDQwIDEyIDg5IDIwIDEwOCA1MCAxMTUgNjIgMTQwIDcwIDE0MCA0IDAgOCAxNiA4IDM1IDAgMTkgOSA1NCAxOSA3NyA2MiYjMTA7MTM4IDkxIDE5NyAxMDAgMjAzIDYgMyAxMSAxMyAxMSAyMiAwIDEzIDI1IDQ1IDk1IDEyMyA3IDggMTYgMzEgMjAgNTIgNCAyMCYjMTA7MTggNDUgMzEgNTcgMTMgMTEgMjQgMjYgMjQgMzMgMCA0MCAzMTggMzQzIDQwNCAzODQgMjggMTMgNjUgMzMgODEgNDQgMTcgMTEmIzEwOzQ5IDI5IDcyIDQwIDIzIDExIDQ1IDI1IDQ4IDMwIDMgNiAxNiAxMCAyOCAxMCAxMiAwIDM3IDkgNTUgMjAgMTggMTEgNDEgMjAmIzEwOzUyIDIwIDExIDAgMjAgNSAyMCAxMCAwIDYgLTkgMTAgLTE5IDEwIC0xNyAwIC0yNSA5IC0zMCAzNSAtMiA2IC05IDE4IC0xOCAyNyYjMTA7LTEzIDE1IC0xMiAxOCA5IDMxIDM3IDI0IDE0NSA2NyAxNjggNjcgMTEgMCAzOCA5IDYwIDIwIDIxIDExIDcxIDI0IDEwOSAzMCYjMTA7MzggNSA4OSAyMCAxMTMgMzIgMjQgMTMgNjggMjYgOTggMzAgOTUgMTIgMTIwIDIwIDEzOCA0MiAzMCAzNiA3NyA1NiAxMzQgNTYmIzEwOzI5IDEgNzYgNyAxMDMgMTUgMjggNyA1NiAxMiA2MyA5IDggLTIgMjcgLTQgNDMgLTR6IG0xNjQ3IC0xODYgYzEyIC00IDIyIC0xMyYjMTA7MjIgLTIyIDAgLTkgMTAgLTI3IDIzIC00MCAxNSAtMTcgMTggLTI2IDEwIC0yOSAtNyAtMyAtMTMgLTExIC0xMyAtMTkgMCAtOSYjMTA7LTQgLTEyIC0xMCAtOSAtNSAzIC0xMCAxIC0xMCAtNSAwIC02IC00IC05IC05IC02IC01IDQgLTExIDIgLTEzIC0yIC0xIC01JiMxMDstMTggLTUgLTM3IDAgLTI2IDcgLTMyIDEzIC0yOCAyOSAzIDEwIDEgMTkgLTMgMTkgLTYgMCAtNyA3MiAtMSA4OCAyIDQgNDYgMiYjMTA7NjkgLTR6IG02NDIgLTIzOSBjMCAtMTQgLTggLTI5IC0yMCAtMzUgLTExIC02IC0yMyAtMjMgLTI3IC0zOCBsLTYgLTI3IC05IDMwJiMxMDtjLTQgMTcgLTUgNDQgLTIgNjAgNCAyNSAxMSAzMCAzNSAzMiAyNSAyIDI5IC0xIDI5IC0yMnogbS0yMjAzIC0xMTggYzggLTUgMTAmIzEwOy0yMCA3IC0zNiAtOSAtMzUgLTE1IC00NSAtMjMgLTM1IC0zIDUgLTE1IDE0IC0yNiAyMCAtMjEgMTIgLTMwIDM2IC0yMSA1OSA1JiMxMDsxNCA0MSAxMCA2MyAtOHogbTE4NjIgLTE2IGMyMiAtMTUgNDEgLTE3IDEyNCAtMTMgMTQxIDYgMTUwIC01IDEwNCAtMTMzIC04JiMxMDstMjIgLTI3IC01MyAtNDMgLTY5IC0zMiAtMzMgLTI1IC01OCAyMiAtNjYgMzAgLTUgODIgLTY5IDY1IC03OSAtNSAtMyAtMTMmIzEwOy0yNiAtMTggLTUxIC03IC0zNSAtMTMgLTQ1IC0zMyAtNTAgLTQzIC0xMSAtNTAgLTIgLTUwIDY0IDAgNTQgLTQgNjYgLTI1IDg2JiMxMDstMTQgMTMgLTI1IDMwIC0yNSAzOCAwIDI1IC0zMSA1MiAtNjEgNTIgLTE1IDAgLTMwIDQgLTM0IDkgLTMgNSAtMTggMTIgLTMzJiMxMDsxNiAtMzEgNyAtNzcgNTkgLTc1IDg1IDEgMTAgLTQgMTcgLTEwIDE3IC00MiAtMSAtNjQgNSAtNzQgMjMgLTE1IDI0IC04IDQ3JiMxMDsxOCA1NSAxMCA0IDE5IDEyIDE5IDIwIDAgNyA2IDE2IDEzIDE5IDIxIDkgODkgLTQgMTE2IC0yM3ogbS03MzEgLTEwNiBjMjAgLTkmIzEwOzU2IC0yMCA4MCAtMjYgODkgLTIwIDEzMyAtMTA0IDU4IC0xMTEgLTE5IC0yIC0zMSAtOCAtMzEgLTE4IDAgLTggLTQgLTE4IC0xMCYjMTA7LTIyIC0xMiAtOSAyMyAtMzcgNDcgLTM4IDkgMCAxOCAtMyAyMCAtOCAyIC00IDM0IC0yMyA3MiAtNDEgMzggLTE5IDg4IC01MyYjMTA7MTEwIC03NiAzNiAtMzcgMTIzIC0xNjEgMTUxIC0yMTYgNSAtMTAgMTYgLTE5IDIzIC0xOSA4IDAgNiAtNyAtNyAtMjEgLTExJiMxMDstMTIgLTIzIC0zNSAtMjYgLTUxIC0xMCAtNDMgMTUgLTEyNyA1MiAtMTc4IDE4IC0yNSAzOSAtNjAgNDcgLTc4IDggLTE3IDI2JiMxMDstMzYgMzkgLTQxIDI5IC0xMSA4OCAtODMgMTA2IC0xMjggNyAtMTcgMTkgLTM0IDI4IC0zNyA4IC0zIDEyIC0xMCA5IC0xNCAtMyYjMTA7LTUgMjEgLTM1IDUyIC02OCA1NyAtNTkgNTcgLTU5IDU3IC0xMjEgMCAtMzUgMyAtNjMgOCAtNjMgNCAwIDcgLTYgNyAtMTIgMCYjMTA7LTcgNyAtMjUgMTQgLTQwIDE1IC0yOCAxNSAtMjggLTIwIC0yOCAtMjUgMCAtMzQgNCAtMzUgMTggMCA5IC04IDMxIC0xOCA0NyYjMTA7LTE3IDI4IC0yMiAzMCAtNzcgMzEgLTEwNiAyIC0xMDMgMSAtNjYgMzIgMzcgMzIgNDAgNDcgMTEgNjIgLTI4IDE2IC00OSA2JiMxMDstNDkgLTIzIDAgLTE0IC03IC0zMCAtMTYgLTM4IC0xMyAtMTAgLTIwIC0xMCAtNDUgNSAtMjcgMTYgLTM4IDE2IC0xMjAgNSAtODMmIzEwOy0xMiAtOTMgLTEyIC0xMjQgNSAtMTkgMTEgLTMzIDIyIC0zMCAyNSA2IDExIC04IDI2IC0zNyAzOCAtMzAgMTMgLTM4IDMzIC0xMyYjMTA7MzMgOSAwIDE1IDkgMTUgMjUgMCAzNSAzNyAxMDUgNTUgMTA1IDE4IDAgMTkgMTEgMiA0MSAtMjcgNTEgLTQyIDY5IC01NyA2OSYjMTA7LTkgMCAtMjQgNiAtMzQgMTMgLTE3IDEyIC0xNyAxOCAtNyA1MCAxNSA0NSA3IDg4IC0yMyAxMjUgLTEzIDE1IC0yNiA0OCAtMjkmIzEwOzc2IC00IDI3IC0xMyA1NCAtMjEgNjAgLTE0IDExIC0yMCAzMyAtMTcgNjcgMSAxMSAxNCAxOSAzNiAyMyAzOSA4IDQ5IDE4IDQwJiMxMDs0NiAtNCAxMiAtMzIgMjkgLTgzIDQ5IC00MyAxNiAtNzggMzYgLTgwIDQ0IC0yIDkgLTE2IDE5IC0zMyAyMiAtMzUgOCAtMzkgMjUmIzEwOy01IDI1IDI0IDAgODIgMzkgNTkgNDAgLTYgMCAtMjUgMTMgLTQwIDI5IC0xNiAxNiAtNTEgMzYgLTc4IDQ2IC0yNyA5IC01OSAyOCYjMTA7LTcyIDQyIGwtMjQgMjUgMjAgMjIgYzI2IDI4IDI2IDM4IDIgNjAgLTE5IDE3IC0xOSAxOCAyIDU0IDI1IDQ1IDQ3IDcyIDU5IDcyJiMxMDs1IDAgMjUgLTcgNDYgLTE1eiBtLTI5MCAtNzMgYzIyIC0yNiAyMyAtMjYgMzcgLTggNyAxMCAxOCAxNSAyNCAxMSAxNCAtOCAxNCYjMTA7LTcyIDEgLTgwIC0xNSAtOSAtMTIgLTQxIDUgLTU1IDI0IC0yMCAxOCAtNDIgLTIzIC04NSAtMzggLTQxIC03OSAtNTUgLTk0JiMxMDstMzMgLTE0IDIzIC05IDEwNSA3IDExOCA4IDcgMTUgMjEgMTUgMzEgMCAyNyAtMjggMjQgLTMyIC0zIC0yIC0xNyAtMTAgLTIzJiMxMDstMjggLTIzIC0yMiAwIC0yNSA1IC0yOCAzOSAtMiAyMSAxIDQzIDcgNDkgNiA2IDExIDIzIDExIDM4IDAgMjQgNCAyNyAzOCAyNyYjMTA7MjggMSA0MiAtNSA2MCAtMjZ6IG0tOTM4IC01NyBjMCAtOCAtOCAtMTUgLTE5IC0xNSAtMTQgMCAtMjAgLTEwIC0yNSAtNDIgLTUmIzEwOy0zMCAtMTAgLTM4IC0xOCAtMzAgLTE3IDE3IC0xIDc2IDI1IDg4IDMxIDE2IDM3IDE2IDM3IC0xeiBtLTI0MCAtMTA0IGMxOCYjMTA7LTM0IDEyIC05OSAtMTAgLTExOCAtMTEgLTEwIC0yMCAtMjMgLTIwIC0yOSAwIC02IC0xNCAtMjUgLTMwIC00MyAtMzUgLTM2JiMxMDstNTIgLTc0IC00NCAtOTYgNCAtOCAxIC0yMiAtNiAtMzAgLTYgLTggLTkgLTE5IC02IC0yNCA0IC02IC02IC0xNyAtMjIgLTI1JiMxMDtsLTI5IC0xNSAtMTcgNTUgYy0xNCA0NiAtMTUgNjMgLTUgMTExIDYgMzIgMTMgNjkgMTYgODMgMyAxNiAxNiAzMSAzNCAzOSAxOCYjMTA7OCAzMSAyMyAzNSAzOSA4IDQxIDE5IDU2IDQ1IDYzIDQwIDExIDQ4IDEwIDU5IC0xMHogbTEzNzkgLTg3IGMxNyAtMjAgMTcgLTIxJiMxMDstMTAgLTU0IC0xNiAtMTkgLTMwIC0zMiAtMzIgLTI5IC0yOCAzMCAtMzQgODggLTE0IDExOSAxMSAxOSAxMyAxOSAyNSAzIDcmIzEwOy0xMCAyMSAtMjcgMzEgLTM5eiBtLTM4NyAtMzIgYy05IC0yNyAtMTkgNSAtMTQgNDMgbDYgNDAgNiAtMzUgYzMgLTE5IDQgLTQxJiMxMDsyIC00OHogbS00Nzk0IDcgYy0xMSAtNiAtMzYgLTYgLTczIDAgLTUgMSAtMiA2IDggMTIgOSA1IDIxIDggMjYgNSA1IC0zIDEyIDImIzEwOzE2IDEyIDYgMTYgNyAxNiAyMSAtMyAxMSAtMTUgMTIgLTIxIDIgLTI2eiBtMzk0MiAtMzEgYy0xIC00OSAtMiAtNTEgLTE1IC0zNCYjMTA7LTggMTEgLTE1IDI3IC0xNSAzNyAwIDEwIC0xMSAyMCAtMjcgMjQgLTIxIDUgLTI0IDggLTEyIDE2IDcgNSAyNiA5IDQyIDkgMjYmIzEwOzAgMjcgLTIgMjcgLTUyeiBtLTM1NTYgLTM3IGMxMyAtNiAzMSAtMjUgNDAgLTQzIDE3IC0zOCAyMyAtMTMzIDEyIC0xOTUgLTYmIzEwOy0zMiAtMyAtNDggMTAgLTY4IDE0IC0yMSAxNSAtMzEgNSAtNTEgbC0xMSAtMjUgLTM1IDI3IGMtMjkgMjIgLTM1IDMzIC0zNSA2NCYjMTA7MCAzOSAtNDcgMTQ3IC03MyAxNjkgLTEzIDEwIC0xMyAxOSAtMiA2MCA3IDI3IDE2IDU0IDE5IDYwIDkgMTQgMzcgMTQgNzAgMnomIzEwO20xMTYwIC04MyBjLTEgLTEwIC0yIC0yNSAtMyAtMzMgLTIgLTI0IC01OCAtMTQgLTcxIDEzIC0xNCAzMyAtNCA0NCAzOCA0MCAyOCYjMTA7LTIgMzcgLTcgMzYgLTIweiBtLTEzODkgLTE4IGM5IC0yOCAwIC0zOCAtNDUgLTUwIC0zMiAtOCAtNDEgLTE2IC00NSAtMzggLTMmIzEwOy0xNSAtMTAgLTQ4IC0xNiAtNzQgLTYgLTI2IC04IC01MSAtNSAtNTYgMiAtNCAwIC0xNCAtNSAtMjIgLTggLTEyIC0xNSAtOSYjMTA7LTM3IDE3IC0xNSAxNyAtMzUgNDcgLTQ1IDY1IGwtMTggMzQgMzYgNDAgYzIwIDIxIDQxIDQ4IDQ1IDYwIDUgMTEgMTQgMjEgMjImIzEwOzIyIDcgMSAyOSA1IDQ4IDEwIDUyIDE1IDU4IDE0IDY1IC04eiBtMzI1NyAtMTQ1IGM4IC00MiAtMjMgLTUxIC01NSAtMTYgLTI1JiMxMDsyOSAtMjQgNDQgMyA1MyAyMyA4IDQ3IC05IDUyIC0zN3ogbTE0MSAxNSBjOSAtMTEgMjMgLTIwIDMyIC0yMCA4IDAgMTkgLTggMjQmIzEwOy0xOCA1IC05IDI1IC0zNCA0NCAtNTQgMjkgLTMxIDM2IC00NyA0MSAtOTUgNSAtNDIgMiAtMzUxIC00IC00MjMgMCAtMyAtMTUmIzEwOy0xNCAtMzQgLTI0IC00OCAtMjUgLTEyMiAtMTUgLTEzOCAxOSAtMTcgMzcgMTIgNzAgNTggNjYgMzAgLTIgMzYgMCAzMSAxMyAtNCYjMTA7OSAzIDY5IDE0IDEzNCAyNyAxNTUgMjcgMTU5IC0xMCAyMTkgLTI3IDQ0IC0zNyA1MiAtNTUgNDcgLTE4IC00IC0yNCAxIC0zNCYjMTA7MjkgLTcgMTggLTIzIDQwIC0zNyA0NyAtMjggMTUgLTMyIDI4IC0xMSAzNiA4IDMgMTIgMTIgMTAgMTkgLTQgOCAzIDE1IDE4IDE4JiMxMDsxMyAyIDI1IDUgMjggNiAzIDAgMTMgLTggMjMgLTE5eiBtLTIzMSAtMTgxIGMyMiAtMjAgMjQgLTEwNSAzIC0xMzMgLTM1IC00NiYjMTA7LTI3IC0xNjggMTEgLTE3NCAxMCAtMiAzMSAtOCA0NiAtMTMgMjMgLTEwIDI2IC0xNiAyNCAtNTAgLTIgLTIyIC02IC00MiAtOCYjMTA7LTQ1IC0zIC0yIC0zMiA5IC02NCAyNiAtMzIgMTYgLTY4IDMwIC04MCAzMCAtMjggMCAtMzcgMTMgLTUzIDc1IC02IDI3IC0xMyYjMTA7NTEgLTE1IDUyIC0xIDIgLTI3IDUgLTU3IDggLTI5IDIgLTQ4IDEgLTQyIC0zIDYgLTQgMTMgLTI3IDE0IC01MiBsNCAtNDUgLTkwJiMxMDsxIGMtNTAgMCAtODkgNCAtODcgNyAxIDQgMiAxOSAzIDM1IGwxIDI3IDExIC0yNSBjNyAtMTQgMTggLTI2IDI2IC0yOCAzNSAtNyYjMTA7NTYgNTIgMjggODAgLTIxIDIxIC0yOCA0OSAtMTcgNjMgOCAxMCAxOCAxMCA0NiAwIDIwIC03IDQwIC0xOCA0NCAtMjUgNSAtOSA5JiMxMDstOSAxNCAtMSA0IDYgMSAxMSAtNiAxMiAtOSAwIC04IDIgMiA2IDggMyAyMiAxMiAzMSAyMCAyMCAxNyA0OSA3IDQ5IC0xNiAwJiMxMDstMTAgNiAtMjUgMTQgLTM2IDEzIC0xOCAxNCAtMTggMzkgMSAyNSAxOSAzMCAzMyA0MiAxMzQgMyAyNSAxMSA2NSAxNyA4OSAxMSYjMTA7NDMgMTIgNDQgMjIgMjAgNiAtMTMgMTggLTMxIDI4IC00MHogbTYyMiAzNSBjOSAtMjMgNyAtNTcgLTQgLTc0IC05IC0xMyAtMTImIzEwOy0xMyAtMjQgMyAtMTUgMTkgLTE2IDUzIC0yIDc1IDEwIDE3IDIzIDE1IDMwIC00eiBtLTc0NCAtNDkgYzAgLTggLTQgLTE3IC0xMCYjMTA7LTIwIC02IC00IC0xMCA1IC0xMCAyMCAwIDE1IDQgMjQgMTAgMjAgNiAtMyAxMCAtMTIgMTAgLTIweiBtMjU2IC0xNzUgYy04JiMxMDstODMgLTIxIC0xMjUgLTM2IC0xMjUgLTEyIDAgLTE1IDE1IC0xNCA3NSAxIDQxIDcgODkgMTQgMTA1IDExIDI5IDEyIDMwIDI2JiMxMDsxMCAxMSAtMTQgMTQgLTM0IDEwIC02NXogbTIwMzEgLTEwMiBjLTMgLTcgLTUgLTIgLTUgMTIgMCAxNCAyIDE5IDUgMTMgMiAtNyYjMTA7MiAtMTkgMCAtMjV6IG0tOCAtMjkgYzIwIC01NyAxNiAtNjcgLTI2IC02MCAtMzIgNSAtMzggMTAgLTQxIDM0IC03IDU5IDQ4IDc5JiMxMDs2NyAyNnogbS0yNzM1IDE1IGM5IC0zIDE2IC0xMCAxNiAtMTYgMCAtNSAtNCAtNiAtMTAgLTMgLTUgMyAtMTAgMSAtMTAgLTYgMCYjMTA7LTggLTQgLTggLTE1IDEgLTI4IDIzIC0xNiAzNyAxOSAyNHogbTE3NTYgLTEwIGMwIC04IC00IC0xMiAtMTAgLTkgLTUgMyAtMTAmIzEwOzEwIC0xMCAxNiAwIDUgNSA5IDEwIDkgNiAwIDEwIC03IDEwIC0xNnogbS0xNjYzIDAgYy0zIC0zIC0xMiAtNCAtMTkgLTEgLTggMyYjMTA7LTUgNiA2IDYgMTEgMSAxNyAtMiAxMyAtNXogbTExNTMgLTY0IGMwIC0xNiAtNCAtMzAgLTEwIC0zMCAtMTEgMCAtMTQgNDMgLTMmIzEwOzUzIDExIDEyIDEzIDggMTMgLTIzeiBtODc0IC0xNyBsMjQgLTI3IC0yMiAtMjMgYy0zMSAtMzMgLTU3IC0zMCAtNTIgNSA1IDM0JiMxMDsxNyA3MiAyMyA3MiAyIDAgMTQgLTEyIDI3IC0yN3ogbS0zMDQgLTQ5IGMwIC0xNyAtMyAtMzQgLTcgLTM3IC05IC0xMCAtMzMgMTImIzEwOy0yOCAyNiAyIDcgNiAyNSAxMCA0MSA1IDIzIDggMjcgMTYgMTUgNSAtNyA5IC0yOCA5IC00NXogbTE1NyA0MSBjMTYgLTggMzcmIzEwOy0yMyA0NiAtMzMgMTUgLTE3IDE1IC0yMSAtNCAtNjAgLTIyIC00NCAtMzYgLTUyIC00NSAtMjcgLTQgOCAtMTIgMTUgLTIwIDE1JiMxMDstOCAwIC0xNCA0IC0xNCA5IDAgNSAtMTggMTIgLTQwIDE2IC0yMiA0IC0zOSAxMCAtMzkgMTMgNCAyNiAtMyA0MSAtMTYgMzYmIzEwOy0xMCAtNCAtMTUgMCAtMTUgMTEgMCAxMSA1IDE1IDE1IDExIDggLTMgMTUgLTEgMTUgNCAwIDggMjQgMTQgNzEgMTkgOSAwIDI5JiMxMDstNiA0NiAtMTR6IG0tMzQzNyAtMTA1IGMxOSAtOCAzOSAtMjAgNDMgLTI3IDQgLTcgMTkgLTEzIDMyIC0xMyAzMCAwIDQ1IC00MSYjMTA7NDUgLTEyMSAwIC02NiAtMTcgLTc4IC00NiAtMzQgLTkgMTQgLTIwIDIyIC0yNSAxOSAtNSAtMyAtOSA5IC05IDI1IDAgMTcgLTQmIzEwOzMxIC05IDMxIC01IDAgLTExIDE4IC0xNSA0MCAtNiAzOCAtOCA0MCAtNDQgNDIgLTIwIDAgLTQyIDEgLTQ5IDEgLTE0IC0xIC0yNyYjMTA7MzIgLTE4IDQ2IDMgNiAxMiA4IDE5IDUgOCAtMyAxNyAwIDIxIDYgNCA3IDEwIDggMTQgMyAzIC01IDIyIC0xNSA0MSAtMjN6JiMxMDttLTUwMiAtMiBjNDkgMiA2MiAtMSA2MiAtMTMgMCAtMTIgLTE2IC0xNSAtODIgLTE1IC04OCAwIC0xMjYgMTIgLTk4IDMwIDggNSYjMTA7MjQgNyAzNSAzIDExIC0zIDQ4IC01IDgzIC01eiBtMTM4IC03MyBjMTYgLTcgMzkgLTI1IDQ5IC0zOSAyNCAtMzIgOTMgLTYyJiMxMDsxMDggLTQ3IDYgNiAyOSAxMSA1MiAxMCAzMSAwIDM1IC0yIDIwIC05IC02OCAtMjcgLTM4IC03NSA0NSAtNzEgMzEgMSA1MCAtMiYjMTA7NTAgLTkgMCAtMjUgNDQgLTcwIDY5IC03MCAzNyAtMSA1NCAtMTggNzQgLTc2IDE5IC01NSAxNiAtODAgLTEzIC04OSAtMTQgLTQmIzEwOy0yNyAtMzEgLTQ1IC04OSAtMjkgLTk4IC0zMSAtMTQ2IC05IC0yMzkgMTQgLTU4IDE1IC04MiA2IC0xNTUgLTYgLTQ4IC0yMCYjMTA7LTExNiAtMzEgLTE1MSAtMTIgLTM1IC0yMSAtNzcgLTIxIC05MyAwIC0yOCAtMjYgLTk3IC00MCAtMTA4IC00IC0zIC0xNSAtMzMmIzEwOy0yNSAtNjcgLTEwIC0zNSAtMjIgLTYzIC0yNyAtNjMgLTQgMCAtOCA0IC04IDEwIDAgNSAtMyA5IC03IDkgLTQwIC02IC01MyAyJiMxMDstNTMgMzYgMCAyOCA1IDM3IDMwIDUwIDI2IDEzIDMwIDIxIDMwIDU2IDAgMjIgLTQgMzggLTggMzUgLTQgLTIgLTI3IDggLTUxJiMxMDsyNCAtMjQgMTYgLTU4IDMyIC03NiAzNiAtMzQgNiAtNTMgMjggLTM1IDM5IDYgNCAxMCAxNCAxMCAyNCAwIDkgOSAyNyAyMSAzOSYjMTA7MjAgMjIgMjAgMjQgMyA2NyAtOSAyNSAtMjMgNTAgLTMwIDU2IC04IDYgLTE0IDE1IC0xNCAxOSAwIDE3IC01NSA3MCAtNzIgNzAmIzEwOy0xMSAwIC0xOCA3IC0xOCAyMCAwIDExIC05IDM5IC0xOSA2MiAtMTEgMjQgLTI1IDU3IC0zMSA3NCAtOSAyNSAtMTkgMzMgLTQ3JiMxMDszNyAtNTMgOSAtODMgNTAgLTgzIDExNSAwIDQxIC00IDU0IC0xNyA1OCAtNjMgMTkgLTc5IDMzIC05MyA3NSAtOCAyNCAtMTcgNDYmIzEwOy0yMiA0OSAtNCAzIC0xMiAzNiAtMTggNzQgLTYgMzcgLTE3IDc3IC0yNSA4OSAtMjIgMzQgLTMwIDEwNCAtMTUgMTMyIDcgMTQmIzEwOzE4IDIxIDI0IDE3IDIxIC0xMyA4MSAtMzIgMTA0IC0zMiAxMyAwIDIyIDYgMjIgMTUgMCAyNiA2OCA1NCA4MSAzMyA1IC04IDE4JiMxMDstNyA0NiA0IDMzIDEzIDQxIDEzIDU4IDEgMTEgLTcgMzQgLTIwIDUxIC0yOHogbTE4ODggLTQwIGMtNCAtOCAtMTAgLTE1IC0xNSYjMTA7LTE1IC01IDAgLTkgNyAtOSAxNSAwIDggNyAxNSAxNSAxNSA5IDAgMTIgLTYgOSAtMTV6IG0xNzk1IC0yNSBjOSAwIDIyIC00IDMwJiMxMDstOSAxMSAtNyA2IC0xMyAtMjIgLTI1IC0zOCAtMTUgLTU3IC00NiAtNTcgLTkyIDAgLTI4IC0zMSAtNDQgLTg1IC00NCAtMjUgMCYjMTA7LTM1IDUgLTQwIDIxIC00IDExIC0xMyAxOCAtMjAgMTUgLTcgLTIgLTE2IDIgLTE5IDEwIC00IDExIDMgMTkgMjMgMjcgMjEgOCYjMTA7MzMgMjIgNDIgNTAgOCAyNSAyMiA0MyAzOCA1MCAxNSA3IDMwIDE3IDM0IDI1IDYgMTAgMTQgOCAzNCAtOCAxNCAtMTEgMzMgLTIwJiMxMDs0MiAtMjB6IG0xNjE5IC0xMCBjOSAtMTUgMTkgLTE4IDQyIC0xNCAyMyA1IDMxIDIgMzYgLTEyIDQgLTExIDEyIC0yNiAxOSAtMzQmIzEwOzE3IC0yMiA0NSAtMTAyIDQ1IC0xMzAgMCAtMTMgNyAtMzIgMTYgLTQxIDExIC0xMiAxOCAtNDIgMjAgLTg5IDMgLTY5IC0xMCYjMTA7LTEzNCAtMjQgLTExNSAtNCA2IC0xNCAxMSAtMjIgMTMgLTggMiAtMjMgMTQgLTMzIDI4IC0xMCAxMyAtMjUgMjQgLTMzIDI0JiMxMDstMTkgMCAtMTggMTYgMSAyNCAxNyA2IDIxIDg2IDQgODYgLTYgMCAtOCAxNSAtNCA0NCA2IDM4IDQgNDYgLTIwIDcwIC0xNCAxNCYjMTA7LTMzIDQyIC00MSA2MSAtOSAyMiAtMTkgMzMgLTI2IDI5IC03IC00IC04IC0zIC00IDQgNCA2IC0zIDIxIC0xNCAzMiAtMTEgMTEmIzEwOy0xOCAyNSAtMTUgMzAgMTAgMTcgNDAgMTEgNTMgLTEweiBtLTM4NTggLTYxIGMwIC01IDYgLTkgMTQgLTkgMjIgMCA1NSAtMzMmIzEwOzYxIC02MSA2IC0yMiAyIC0yOCAtMjUgLTM5IC0yOSAtMTIgLTMzIC0xMSAtNjggMTggLTMxIDI1IC0zNyAzNSAtMzQgNjMgMSAxOCYjMTA7OCAzNiAxNCA0MCAxMyA4IDM4IDEgMzggLTEyeiBtMTM5MCAxMSBjOCAtNSAxMSAtMTIgNyAtMTYgLTQgLTQgLTIgLTEzIDQgLTIxJiMxMDsxNSAtMTggLTYgLTQzIC0zNiAtNDMgLTIwIDAgLTIzIDQgLTIxIDM0IDUgNTIgMTcgNjUgNDYgNDZ6IG01OTcgLTYgYy0zIC0zJiMxMDstMTIgLTQgLTE5IC0xIC04IDMgLTUgNiA2IDYgMTEgMSAxNyAtMiAxMyAtNXogbTcxMyAtMTEgYzEgLTQ5IDcyIC03OCAxNjQmIzEwOy02NyA1OSA3IDg0IC0zIDEzNSAtNTMgMTMgLTEyIDMyIC0yMyA0MyAtMjMgMTEgMCAzOCAtMTEgNjEgLTI0IDIzIC0xMyA1OSYjMTA7LTI2IDgxIC0yOSA0MCAtNSA1NiAtMTkgNTYgLTUwIDAgLTMyIDI5IC03NSA1MiAtNzkgMTYgLTIgMzAgLTE3IDQ1IC01MCAxOCYjMTA7LTM2IDI5IC00OCA1MyAtNTMgMjggLTYgNDMgLTI1IDIwIC0yNSAtNSAwIC0xMCAtNyAtMTAgLTE2IDAgLTEzIC03IC0xNSAtMzcmIzEwOy05IC00OSA5IC02OSAyOCAtNzcgNzAgLTYgMjkgLTEyIDM1IC00MSA0MSAtMjIgNCAtNDEgMiAtNDkgLTUgLTEyIC0xMCAtMTcmIzEwOy03IC0yOCAxNiAtOSAxOSAtMjggMzMgLTYxIDQ1IC0yNiAxMCAtNzcgMzggLTExNCA2MyAtMzYgMjUgLTc0IDQ1IC04NCA0NSYjMTA7LTEwIDAgLTIwIDQgLTI0IDkgLTYgMTEgLTcwIC0xMiAtOTUgLTM0IC0yMSAtMTcgLTE2NSAtMjYgLTE4NiAtMTAgLTEzIDkgLTI4JiMxMDs4IC02OSAtMyAtNjUgLTE4IC04NSAtMTIgLTg1IDI3IDAgMjMgNyAzMiAzNSA0NSAxOSA5IDM3IDIxIDQwIDI2IDQgNiAyNCAxOSYjMTA7NDUgMzAgNDEgMjEgODAgNzQgODAgMTA5IDAgMjcgNTAgMzEgNTAgNHogbS0yODAgLTY1IGwyMSAtMjIgLTIzIC0xOCBjLTQ5JiMxMDstMzcgLTEwMiAtOCAtNzEgMzkgMTkgMjkgNDYgMjkgNzMgMXogbS0xMjc2IC04MCBjLTMgLTUgLTE0IC04IC0yNSAtOCAtMjIgMCYjMTA7LTI1IDI0IC02IDQ0IDEwIDEyIDE0IDEwIDI0IC03IDYgLTEyIDkgLTI1IDcgLTI5eiBtLTM4OTQgMTcgYzAgLTggLTkgLTE1JiMxMDstMjAgLTE1IC0yMCAwIC0yNiAxMSAtMTMgMjMgMTIgMTMgMzMgNyAzMyAtOHogbS01MCAtNSBjMCAtNSAtNSAtMTAgLTExIC0xMCYjMTA7LTUgMCAtNyA1IC00IDEwIDMgNiA4IDEwIDExIDEwIDIgMCA0IC00IDQgLTEweiBtMzc3IC05NyBjMiAtNDggOCAtNzAgMjEgLTc5JiMxMDsyNiAtMjAgNTEgLTE3IDYzIDkgMTUgMzQgNTIgNDcgOTQgMzQgMzAgLTkgMzUgLTE1IDM1IC00MSAwIC0xNyAtNCAtMzUgLTgmIzEwOy00MSAtMTEgLTE1IC01MCAtMzUgLTY4IC0zNSAtMTAgMCAtMTQgLTUgLTExIC0xNSA0IC04IDEgLTE3IC00IC0yMSAtNyAtNCAtMSYjMTA7LTE2IDE1IC0zMSAxNCAtMTMgMjYgLTMwIDI2IC0zNyAwIC03IDkgLTIxIDIwIC0zMSAxNCAtMTIgMjAgLTMxIDIwIC01OSAwJiMxMDstNTAgLTE4IC02NCAtOTMgLTcxIC0yOCAtMyAtODAgLTEwIC0xMTQgLTE3IC04NSAtMTYgLTExMyAtNCAtMTEzIDQ5IDAgMjEgLTcmIzEwOzQ2IC0xNCA1NiAtMTkgMjUgNyAxMjcgMzMgMTI3IDEwIDAgMzEgNDYgMzEgNjggMCA0MiAtMjIgOTQgLTQ1IDEwNCAtMTcgOCYjMTA7LTIzIDE4IC0yMyA0MCAxIDE2IDUgMzEgMTEgMzUgMTMgOCAxMTEgMzAgMTE2IDI2IDIgLTIgNiAtMzMgOCAtNzB6IG00MzYzIDQzJiMxMDtjMCAtMyAtNCAtOCAtMTAgLTExIC01IC0zIC0xMCAtMSAtMTAgNCAwIDYgNSAxMSAxMCAxMSA2IDAgMTAgLTIgMTAgLTR6JiMxMDttNDcxMCAtMjYgYzAgLTUgNyAtMTAgMTUgLTEwIDExIDAgMTUgLTExIDE1IC00MCAwIC0zOSAtMSAtNDAgLTM1IC00MCAtMzUgMCYjMTA7LTM1IDAgLTM1IDQzIDAgMjQgMyA0NyA3IDUwIDEwIDExIDMzIDggMzMgLTN6IG0tNTUxNCAtNjIgYzM1IC0zNCA2NCAtNzAgNjQmIzEwOy04MCAwIC0xMCA2IC0xNyAxMyAtMTUgOCAxIDEzIC0xNCAxNSAtNDYgMiAtMzMgMCAtNDcgLTcgLTQyIC02IDMgLTExIDE1IC0xMSYjMTA7MjYgMCAyNiAtNDMgNjUgLTc5IDcyIC0xNiA0IC00NSAyMCAtNjQgMzcgLTE5IDE2IC00MCAzMCAtNDYgMzAgLTYgMCAtMTEgNCYjMTA7LTExIDkgMCA2IC0xMyAxOCAtMzAgMjggLTE2IDkgLTMwIDIxIC0zMCAyNiAwIDQgNCA2IDkgMiA1IC0zIDEyIC0xIDE2IDUgMyA1JiMxMDsyNiAxMCA1MSAxMCA0MiAwIDUwIC01IDExMCAtNjJ6IG0yMTIgMjcgYzcgLTE0IDEwIC00MyA3IC02NSAtMyAtMjYgLTEgLTQyIDgmIzEwOy00NyAyNyAtMTcgNTcgLTY3IDU3IC05NSAwIC0xNiA4IC0zOCAxOCAtNDkgMjEgLTIxIDI3IC03NiAxMSAtOTYgLTYgLTYgLTE0JiMxMDstMjQgLTE5IC00MCAtNiAtMjEgLTggLTIzIC05IC03IC0xIDExIC02IDI1IC0xMSAzMCAtMTQgMTQgLTUwIDE0MiAtNTAgMTc3IDAmIzEwOzE1IC03IDMwIC0xNSAzMyAtOCA0IC0yNCAyNyAtMzUgNTIgLTEyIDI2IC0yNSA0OSAtMjkgNTIgLTUgMyAtMTIgMjEgLTE2IDQwJiMxMDstNiAzNSAtNiAzNSAzMyAzNyAzMyAyIDQxIC0xIDUwIC0yMnogbTgzMiAxNiBjMCAtMTEgLTI1IC0yMSAtNTYgLTIxIC0yMyAwJiMxMDstMzEgMTAgLTE3IDIzIDEwIDEwIDczIDggNzMgLTJ6IG0tMTY5NiAtNDkgYzMgLTUgMiAtMjIgLTIgLTM3IC0xMCAtMzUgLTYyJiMxMDstNTYgLTYyIC0yNSAwIDEwIDcgMjEgMTYgMjQgOSAzIDE0IDEzIDExIDIwIC04IDE5IDI2IDM1IDM3IDE4eiBtMzIwIC01MSBjMyYjMTA7LTUgLTUgLTI0IC0xOCAtNDIgLTU4IC04MCAtNzkgLTE0MCAtODAgLTIyNCAtMSAtNTkgMyAtODggMTUgLTEwNSA5IC0xNCAyMSYjMTA7LTQxIDI4IC02MSA2IC0xOSAyNCAtNDUgNDAgLTU2IDE4IC0xNCAyNyAtMjkgMjYgLTQ0IC0yIC0yNyAtMjYgLTMyIC02MyAtMTQmIzEwOy0xNSA4IC0zOCAxNyAtNTIgMTkgLTE0IDMgLTQ3IDI0IC03NSA0NiAtMjcgMjIgLTY0IDQ3IC04MiA1NiAtMTggMTAgLTM0IDI4JiMxMDstMzggNDIgLTMgMTQgLTIwIDQxIC0zNiA1OSAtMjkgMzQgLTM2IDY5IC0yMCAxMDEgNSA5IDE1IDMxIDIyIDQ3IDMyIDcyIDExOSYjMTA7MTQ0IDE4MyAxNTMgMjMgMyA1MCAxMSA2MSAxOCAyMiAxNiA4MSAxOSA4OSA1eiBtNTQxNCAtNSBjNyAtNCAxMiAtMTYgMTIgLTI2JiMxMDswIC0yNSAyNiAtNTAgNjEgLTU3IDE2IC0zIDI5IC0xMCAyOSAtMTYgMCAtMjEgMzkgMjYgNDUgNTQgOCAzNSAzNSAzOSAzNSA1IDAmIzEwOy0yMCA2IC0yNSAzOSAtMzEgNDQgLTcgNTIgLTE5IDQ0IC02NyBsLTUgLTM0IC03NCAxIGMtNTUgMCAtNzcgLTQgLTg0IC0xNSAtNSYjMTA7LTggLTcgLTE3IC01IC0yMCAyIC00IC05IC0xNCAtMjYgLTI0IC0xNiAtOSAtMjkgLTIwIC0yOSAtMjQgMCAtNCAtNCAtMTMgLTkmIzEwOy0yMCAtNyAtMTEgLTE2IC0xMCAtNDYgNyAtMjEgMTEgLTQxIDI0IC00NCAyOCAtMyA0IC0xNSAxMyAtMjUgMTkgLTExIDYgLTI0JiMxMDsxOSAtMzAgMjkgLTYgMTEgLTE4IDI1IC0yNiAzMSAtOSA4IC0xNSAzMSAtMTUgNjkgMCA0OSAzIDU4IDE4IDYxIDEwIDEgMjYgOSYjMTA7MzUgMTcgMjggMjQgNzMgMzAgMTAwIDEzeiBtNjYyIC04IGMwIC0xNiAtMyAtMTkgLTExIC0xMSAtNiA2IC04IDE2IC01IDIyIDExJiMxMDsxNyAxNiAxMyAxNiAtMTF6IG0tMzA4MCAtOSBjMTkgLTggMzggLTE4IDQxIC0yMyA0IC00IDEwIC0zIDEzIDMgMTAgMTUgMjYgMTQmIzEwOzI2IC0zIDAgLTcgNiAtMjYgMTQgLTQxIDExIC0yMCAxMyAtNDggOSAtOTkgLTYgLTc1IC0xOSAtMTAxIC00NiAtOTAgLTIwIDcmIzEwOy0yMiAzNSAtNSA1MiA4IDggMyAxOSAtMjIgNDIgLTM4IDM1IC01OCAzOCAtODkgOSAtMTQgLTEzIC0yNiAtMTggLTM0IC0xMiAtNyYjMTA7NSAtMjMgMTAgLTM2IDExIC0zMSAxIC0zNiA4IC0yMSAyNyAxMSAxMyAyNCAxNSA2MCAxMCA0MyAtNiA0NiAtNSA0OCAxOSAyIDMxJiMxMDstMzAgNTYgLTczIDU3IC0yNSAwIC0yNyAyIC0xMCA4IDExIDUgMjMgNyAyOCA0IDQgLTIgNyA0IDcgMTUgMCAzNyAxNyAzOSA5MCYjMTA7MTF6IG0tMTU5MSAtMjMgYzkgLTEwIDggLTE1IC00IC0yMCAtOCAtMyAtMTUgLTE1IC0xNSAtMjcgMCAtMTMgLTggLTIzIC0yMSYjMTA7LTI2IC0xMSAtMyAtMjUgLTE2IC0zMCAtMjkgLTQgLTEzIC0xNSAtMjQgLTIyIC0yNCAtOCAwIC0yMCAtMTkgLTI3IC00MiAtNyYjMTA7LTI0IC0xNyAtNTMgLTIyIC02NSAtNiAtMTIgLTggLTMzIC00IC00OCA0IC0xNSAwIC00NiAtOSAtNzIgLTE0IC0zOSAtMTQgLTYxJiMxMDstNSAtMTM5IDggLTY2IDggLTEwNCAxIC0xMzEgLTYgLTIxIC0xMSAtNTAgLTExIC02NSAwIC0zOSA0MCAtMTE3IDU3IC0xMTEgNyYjMTA7MyAxMyAxIDEzIC01IDAgLTYgMTUgLTE2IDM0IC0yMiAxOSAtNiA1MSAtMjQgNzEgLTQwIDIxIC0xNiA1MyAtMzIgNzIgLTM2IDYxJiMxMDstMTEgNjkgLTgwIDEwIC04NiAtMjkgLTMgLTMyIC02IC0zNSAtNDIgLTIgLTI3IDIgLTQ1IDE1IC02MCAxMSAtMTEgMjUgLTM0JiMxMDszMiAtNTEgNyAtMTYgMjEgLTM1IDMyIC00MyAxMCAtNyAxOSAtMTkgMTkgLTI2IDAgLTggNyAtMTYgMTUgLTIwIDE2IC02IDIwJiMxMDstNDEgNiAtNTEgLTUgLTMgLTEyIDQgLTE2IDE1IC00IDExIC0yMCAyNyAtMzYgMzUgLTE2IDkgLTI5IDIyIC0yOSAzMCAwIDggLTgmIzEwOzE1IC0xOCAxNSAtMTggMCAtNjEgNDEgLTgwIDc3IC03IDEyIC0xMiA0NCAtMTIgNzIgMCAyNyAtNSA1MyAtMTAgNTYgLTE4IDExJiMxMDstNzkgLTYxIC03MyAtODUgMyAtMTEgOSAtMjAgMTQgLTIwIDEyIDAgNDAgLTcwIDMzIC04MSAtOCAtMTQgLTM2IC0xMSAtNTQgNiYjMTA7LTEwIDkgLTQyIDI1IC03MSAzNiAtNDUgMTYgLTY4IDE4IC0xMzEgMTMgLTU1IC01IC03OCAtMyAtNzggNSAwIDYgNiAxMSAxMyYjMTA7MTIgMTAgMCAxMCAyIDAgNiAtMjQgOSAtMTMgMjMgMTcgMjMgMjIgMCAzMyA3IDQ0IDI5IDEzIDI1IDEzIDMxIDAgNDkgLTExIDE2JiMxMDstMjAgMTkgLTM3IDEzIC0xMyAtNSAtMzIgLTQgLTQ2IDMgLTIyIDEwIC0yMyAxMyAtMTUgNzEgMTUgMTE1IDEyIDEzNCAtMjcmIzEwOzE2NiAtMTggMTYgLTI5IDI5IC0yMyAyOSA2IDAgMjMgOSAzOCAyMSAyNiAyMSAyNiAyMiAxMCA0NyAtMTQgMjEgLTE3IDQ3IC0xNiYjMTA7MTM2IDIgODUgLTEgMTEzIC0xMyAxMjYgLTE0IDE1IC0xMiAyMSAxNSA1OCAxNiAyMyA0OSA1NCA3MiA2OSAyNCAxNiA0NSAzMiYjMTA7NDcgMzcgMTAgMjMgNzggNzYgOTkgNzYgMTIgMCAyMiA0IDIyIDkgMCA1IDEzIDE0IDI5IDE5IDI3IDEwIDkxIDY5IDkxIDg1IDAmIzEwOzE0IDI1IDM2IDQxIDM3IDkgMCAyMiAtNiAyOCAtMTR6IG0tMTgxNyAtMzEgYy01IC0yOSAtNiAtMzAgLTQ3IC0zOSBsLTMwIC04JiMxMDsyMyAyNCBjMTIgMTQgMjIgMzAgMjIgMzYgMCA3IDggMTIgMTkgMTIgMTQgMCAxNyAtNiAxMyAtMjV6IG0zMTk2IDkgYzUgLTkgMTMmIzEwOy0xNSAxOCAtMTQgMTQgMyAxNCAtMTQgLTEgLTM0IC0xMSAtMTQgLTIwIC0xNyAtNDIgLTExIC0xNSA1IC0zMSA4IC0zNSA3IC0xNSYjMTA7LTQgLTggMTggMTQgNDMgMjUgMjkgMzQgMzEgNDYgOXogbTQ0MiAtMjkgYzAgLTggLTEwIC0yMCAtMjIgLTI2IC0xMyAtNyAtMjkmIzEwOy0xOSAtMzYgLTI4IC0xMCAtMTQgLTEyIC0xMiAtOCAxNCAyIDE3IDUgMzQgNSAzOCAxIDUgNSA2IDEwIDIgNSAtMyAxMiAtMSAxNiYjMTA7NSA5IDE1IDM1IDEyIDM1IC01eiBtLTEzMDIgLTMgYzE3IC0xMiAzIC00NyAtNDMgLTEwOCBsLTM3IC00OCA0IC0xMjEgMyAtMTIxJiMxMDs1NyAtNTUgYzEwMiAtOTggODIgLTE0MSAtNjIgLTEzMiAtODQgNSAtMTQzIDI4IC0xNDggNTggLTQgMTkgLTkzIDE0NSAtMTM0JiMxMDsxODkgLTEwIDExIC0xOCAyNiAtMTggMzMgMCA3IC05IDMwIC0yMCA1MSAtMjUgNDggLTE4IDc2IDE4IDY5IDM4IC03IDY5IDExJiMxMDs5NiA1NyAxNiAyNyAzOSA0OCA2OCA2MiAxNjEgNzggMTg1IDg1IDIxNiA2NnogbS0xMTUwIC0yMyBjLTIgLTMgMyAtMTMgMTEmIzEwOy0yMyAxOCAtMjEgOSAtMzAgLTIzIC0yMiAtMjMgNiAtMjQgOSAtMTQgMzEgNiAxNCAxNiAyNCAyMCAyMyA1IC0yIDggLTYgNiAtOXomIzEwO20xOTYwIC03NyBjMiAtMzQgLTEgLTYyIC02IC02MiAtMTUgMCAtMjcgNDMgLTI0IDg4IDUgNjYgMjYgNDcgMzAgLTI2eiYjMTA7bS0xNjYxIDM2IGMtMyAtOCAtNiAtNSAtNiA2IC0xIDExIDIgMTcgNSAxMyAzIC0zIDQgLTEyIDEgLTE5eiBtLTE5NzcgLTE3JiMxMDtjMTUgLTI5IDQgLTQ1IC00MCAtNTkgLTU5IC0xOCAtNzcgLTE2IC04MiAxMiAtNyAzMyAwIDQxIDQ3IDU0IDU4IDE1IDYzIDE0JiMxMDs3NSAtN3ogbTEwOTAgMCBjMTIgLTIzIDQgLTUxIC0xNSAtNTEgLTE5IDAgLTI2IDI4IC0xMiA1MCAxNSAyNCAxNCAyNCAyNyAxeiYjMTA7bTY0NSAtMjEgYzMgLTYgLTEgLTEzIC0xMCAtMTYgLTE5IC04IC0zMCAwIC0yMCAxNSA4IDE0IDIyIDE0IDMwIDF6IG0xNDQ5JiMxMDstOTEgYzEwIC00OSA3IC0xMTcgLTUgLTEyNSAtMjMgLTE0IC0zMSAxNCAtMjQgODUgNyA3NiAxOSA5MSAyOSA0MHogbS0yNzgzIDEmIzEwO2MxMCAtNiAyNiAtMjQgMzQgLTQwIDE1IC0yOCAxNCAtMzEgLTEwIC01MiAtMjggLTI1IC0zNCAtNzIgLTExIC05NyA4IC05IDI2JiMxMDstMjkgNDEgLTQ1IDE0IC0xNSAzMiAtNDQgMzggLTY0IDEwIC0zMSAxOCAtMzcgNTYgLTQ2IDMzIC04IDQ5IC0xOSA2MSAtNDEgMTEmIzEwOy0xOSAyOSAtMzMgNTIgLTQwIDM3IC0xMSA2OCAtMzIgNjggLTQ2IDAgLTUgMTYgLTI0IDM2IC00MiAyOSAtMjcgMzUgLTM4IDI5JiMxMDstNTYgLTYgLTE5IC0xMiAtMjIgLTM3IC0xNyAtMTcgMyAtNDMgNiAtNTggNiAtMTUgMCAtMzggOSAtNTEgMjEgLTEzIDExIC0zNiYjMTA7MjMgLTUxIDI2IC0xNSAzIC01MyAzMSAtODUgNjQgLTg1IDg1IC05MSA5NCAtOTkgMTM2IC0zIDIxIC0xNCA0NyAtMjQgNTggLTEyJiMxMDsxMyAtMjAgNDUgLTI1IDk1IC00IDQxIC0xMyA4NCAtMjAgOTYgLTI0IDM3IC0yMyA4MSAzIDg3IDI4IDggMzMgNyA1MyAtM3omIzEwO204NjMgLTY2IGM1IC00MSAzIC00OCAtMjcgLTgwIC04OSAtOTggLTEwMiAtMTA2IC0xMzYgLTg1IC0xMSA3IC04IDE2IDIwIDQ0JiMxMDs1NCA1NSA3OSA4OSA3OSAxMDYgMCA5IDUgMzMgMTEgNTQgMTAgMzcgMTEgMzggMjggMjMgMTAgLTkgMjEgLTM3IDI1IC02MnomIzEwO200NzMgNyBjMTQgLTQ0IDE2IC02NiA5IC0xMDQgLTggLTQyIC03IC01MCAxMiAtNzAgMjggLTMwIDI4IC0zMyAtOSAtNTEgLTI2JiMxMDstMTMgLTMxIC0xMyAtMzYgMCAtMyA4IC0zIDMwIDAgNDkgNCAyNiAtMSA0NCAtMjIgNzcgLTMwIDQ4IC00OSAxNTQgLTI4IDE2MSYjMTA7MzUgMTEgNTYgLTYgNzQgLTYyeiBtLTI5OSAyMCBjNiAtOCAxMiAtMzggMTIgLTY2IDAgLTI4IC02IC01OSAtMTIgLTY4IC0xMiYjMTA7LTE1IC0xNiAtMTMgLTQ1IDEzIC0yOCAyNSAtMzMgMzcgLTMzIDcyIDAgMjQgMyA1MyA2IDY1IDUgMTkgOSAyMCAzMiAxMCAxNSYjMTA7LTYgMzMgLTE4IDQwIC0yNnogbTE2MDAgLTIgYy0xIC0xNiAtNSAtMjkgLTkgLTI5IC0xMCAwIC0yMSA0OSAtMTQgNjEgMTEgMTcmIzEwOzI1IC0yIDIzIC0zMnogbS01MDI4IDEgYzIyIC0xMSA0MCAtMjQgNDAgLTI4IDAgLTUgMTYgLTE2IDM1IC0yNSAxOSAtOSAzNSYjMTA7LTIzIDM1IC0zMSAwIC0yMCAtNDggLTU2IC03NCAtNTYgLTExIDAgLTI1IC00IC0zMSAtOCAtMTYgLTExIC01NSAtNzAgLTU1JiMxMDstODIgMCAtMTMgNjAgLTc2IDYwIC02NCAwIDUgNyAwIDE1IC0xMCAyNSAtMzQgMTggLTc5IC0yMCAtMTI5IC0xOSAtMjUgLTM2JiMxMDstNTQgLTM3IC02NCAtMyAtNDEgMiAtNTMgMjUgLTUzIDE2IDEgMjcgMTIgNDIgNDMgMTggMzcgMjQgNDIgNTggNDUgMzIgMyAzOCYjMTA7MCA0NyAtMjMgMTcgLTQ1IDEgLTEwMyAtNDIgLTE1MiAtMjIgLTI1IC00NiAtNTYgLTU1IC02OSAtMTYgLTI2IC00NyAtMzIgLTU5JiMxMDstMTIgLTQgNyAtNyAyNyAtNiA0NSAzIDQyIC0xNCA0OSAtNjMgMjkgLTQ5IC0yMSAtMTUxIC0yMSAtMTYyIC0yIC01IDggLTM0JiMxMDszMyAtNjYgNTYgLTMxIDIzIC01NyA0NyAtNTcgNTQgMCA3IC05IDIzIC0yMCAzNiAtMjYgMzAgLTI1IDQ0IDUgOTcgMjIgMzcgMzImIzEwOzQ0IDY3IDQ5IDIzIDQgNDggMTQgNTcgMjMgOSA5IDI4IDIzIDQxIDMyIDE4IDEyIDI1IDI1IDI1IDUwIDAgMzkgLTIzIDU1JiMxMDstMTAwIDY1IC0yNyA0IC00MiA5IC0zMiAxMSA5IDMgMTcgMTAgMTcgMTYgMCAxOCA1MiA2NyA3MiA2NyAyMiAwIDg4IDMxIDg4JiMxMDs0MiAwIDQgNyA4IDE1IDggOCAwIDE1IDggMTUgMTggMCA0NSA1NSA1NSAxMjAgMjJ6IG0yMDcwIC0yMCBjMCAtNSAtNSAtMTAmIzEwOy0xMSAtMTAgLTUgMCAtNyA1IC00IDEwIDMgNiA4IDEwIDExIDEwIDIgMCA0IC00IDQgLTEweiBtNDA2NiAtODAgYzI2IC04MCAyNiYjMTA7LTg5IDEgLTk1IC0xMiAtMyAtNDMgLTEgLTY3IDQgLTI1IDYgLTczIDExIC0xMDcgMTEgLTY0IDAgLTgzIDEzIC0zNyAyNCAxNCA0JiMxMDsyNCAxMiAyMiAxNyAtNyAyMCA1NiA3NyA4NyA4MSA2MSA3IDg5IC01IDEwMSAtNDJ6IG0tMzY2IDE0IGMwIC04IC00IC0xMiAtMTAmIzEwOy05IC01IDMgLTEwIDEwIC0xMCAxNiAwIDUgNSA5IDEwIDkgNiAwIDEwIC03IDEwIC0xNnogbS0xNTQzIC0xMTEgYy01IC04NiAtMSYjMTA7LTEwMCAzNCAtMTE5IDE2IC04IDI5IC0yMSAyOSAtMjggMCAtOCA1IC0xNiAxMSAtMTggMTAgLTMgMTggLTkyIDkgLTEwMSAtMyYjMTA7LTIgLTE1IC04IC0yOCAtMTEgLTE2IC02IC0yNCAtMyAtMjkgMTEgLTQgMTAgLTE1IDI3IC0yNSAzOCAtMTAgMTAgLTI1IDQxJiMxMDstMzMgNjggLTEzIDQ0IC0xMyA2MCAwIDEzNSA4IDQ2IDE1IDg2IDE1IDg4IDAgMiA1IDQgMTEgNCA3IDAgOSAtMjMgNiAtNjd6JiMxMDttMTUxIDI5IGM0IC0zMCAtMTQgLTUyIC00MyAtNTIgLTMxIDAgLTQ0IDQ2IC0xOCA2NiAyNiAyMCA1NyAxMyA2MSAtMTR6JiMxMDttLTQ4MDUgLTc3IGMtMiAtNjAgLTYgLTcyIC0yOCAtOTMgLTI2IC0yMyAtMjcgLTI0IC00NyAtNSAtMTggMTYgLTIwIDI2IC0xNSYjMTA7ODggNyA3OCAyMSA5OCA2NSA4NiAyNiAtNyAyNyAtOSAyNSAtNzZ6IG0zOTE1IC0zIGMzIC0yOSAwIC0zMiAtMjMgLTMyIC0yMyAwJiMxMDstMjUgMyAtMTkgMjggOSAzNyAxNCA0NCAyNyAzOSA3IC0yIDEzIC0xOCAxNSAtMzV6IG0xODQyIC0zOCBjMCAtMzMgLTYgLTQ2JiMxMDstMzQgLTczIC00MSAtNDAgLTgxIC00MSAtODEgLTEgMCAzOSAzMSA5MyA2NyAxMTYgMzkgMjUgNDggMTggNDggLTQyeiBtODQ4IDkmIzEwO2M2IC0yMSA4IC02NSA1IC0xMDAgbC02IC02MSAtODYgMSBjLTQ3IDEgLTkxIDUgLTk2IDkgLTE0IDkgLTMgMTM0IDEzIDE1MCAxMCYjMTA7MTAgNjIgMjIgMTUzIDM3IDMgMSAxMSAtMTYgMTcgLTM2eiBtLTEwNDggLTYzIGMtMTMgLTI1IC05MCAtOTAgLTExOCAtMTAxJiMxMDstMTggLTcgLTIzIC0xNSAtMjAgLTM3IDMgLTMxIDE5IC0zMyA4MyAtOSAyMiA4IDU1IDE4IDczIDIyIDMyIDcgMzIgNiAzMCAtMjkmIzEwOy0zIC0zNCAtNCAtMzUgLTQzIC0zNSAtMjIgMSAtNTMgLTQgLTY4IC0xMCAtNjcgLTI2IC0xMTMgLTIgLTEyNCA2MyAtNCAyNCYjMTA7LTEzIDM2IC0zMiA0MyAtMjUgMTEgLTI1IDExIDEyIDEyIDIwIDEgMzcgLTMgMzcgLTkgMCAtMjMgMjEgLTggMjYgMjAgOCAzNiYjMTA7MjIgNDkgNTggNTIgMTcgMiAzNiAxMyA0OCAzMSAxNiAyMiAyMyAyNSAzNCAxNiAxMCAtOCAxMSAtMTYgNCAtMjl6IG0tMTk2MCYjMTA7MTQgYzAgLTggLTUgLTEyIC0xMCAtOSAtNiA0IC04IDExIC01IDE2IDkgMTQgMTUgMTEgMTUgLTd6IG0tNzIgLTEgYy0xMCAtMiYjMTA7LTI2IC0yIC0zNSAwIC0xMCAzIC0yIDUgMTcgNSAxOSAwIDI3IC0yIDE4IC01eiBtMTQ2MCAtMTMgYzI0IC0xMiA0MCAtMjQgMzgmIzEwOy0yOSAtMyAtNCA2IC0xOSAyMCAtMzIgMTMgLTEyIDIzIC0yOCAyMCAtMzQgLTIgLTcgNCAtMTggMTUgLTI1IDE3IC0xMyAxNyYjMTA7LTE1IDIgLTMyIC0yMiAtMjUgLTM4IC0yMyAtNTEgNyAtNiAxNCAtMTggMjUgLTI1IDI1IC03IDAgLTMwIDE1IC01MCAzNCAtMzgmIzEwOzM1IC00OCA3MSAtMjUgOTQgMTUgMTUgNyAxNiA1NiAtOHogbS03ODAgLTUyIGM4IC0yMyA5IC0zNSAxIC00NSAtMTQgLTE2IC02MyYjMTA7LTE3IC04OCAtMSAtMTkgMTIgLTE5IDEyIDAgMzkgMTEgMTUgMjkgMzAgNDIgMzIgMTIgMiAyNCA1IDI3IDYgMyAwIDExIC0xMyYjMTA7MTggLTMxeiBtLTE4NzEgMTYgYy0zIC0zIC0xMiAtNCAtMTkgLTEgLTggMyAtNSA2IDYgNiAxMSAxIDE3IC0yIDEzIC01eiBtMTI2JiMxMDstNDEgYzQgLTMgMiAtMTIgLTQgLTIwIC05IC0xMCAtMTUgLTEwIC0yNSAtMiAtOCA2IC0xNCAxNSAtMTQgMjAgMCAxMCAzNCAxMiYjMTA7NDMgMnogbTExMTAgLTI4IGMyMiAtMzEgMTcgLTQwIC0yOCAtNTUgLTE5IC02IC0zNSAtMTYgLTM1IC0yMSAwIC01IC05IC05JiMxMDstMjAgLTkgLTI3IDAgLTI2IDUgMTUgNTMgMTkgMjIgMzUgNDQgMzUgNDkgMCAxNSAxNSA3IDMzIC0xN3ogbS0yODczIC00MSBjMCYjMTA7LTE4IC0xNCAtMTggLTI5IDAgLTkgMTEgLTkgMTUgMSAxOSAxNyA2IDI4IC0xIDI4IC0xOXogbTU5NDIgLTYgYy02IC04IC03JiMxMDstMjkgLTIgLTU1IDQgLTI0IDUgLTU0IDMgLTY3IC0zIC0xNiAyIC0yOCAxNiAtMzkgMTIgLTggMjQgLTMwIDI4IC00OSA1IC0zMiYjMTA7MyAtMzYgLTIxIC00MiAtMTUgLTQgLTI5IC0xMyAtMzMgLTIyIC02IC0xNyAyMyAtNTQgNDQgLTU0IDcgMCAxMyAtNCAxMyAtMTAmIzEwOzAgLTUgLTQgLTEwIC05IC0xMCAtNCAwIC02IC0xMCAtNCAtMjMgOCAtNDAgLTM5IC04NCAtMTAyIC05NyAtMzAgLTYgLTU3IC0xNCYjMTA7LTU5IC0xOCAtOSAtMTYgNyAtNjAgMjQgLTY1IDEwIC0yIDI2IC0xNyAzNiAtMzIgMTcgLTI1IDE3IC0zMCAwIC05MyAtOSAtMzcmIzEwOy0xOSAtNzcgLTIwIC04OCAtMiAtMTIgLTkgLTMxIC0xNiAtNDMgLTYgLTEzIC05IC00MCAtNSAtNjQgNyAtNTEgLTEwIC03NiYjMTA7LTU3IC04NiAtNDMgLTkgLTY0IC02MSAtNDUgLTExMSAxMCAtMjcgOSAtMzYgLTkgLTY3IC0xNyAtMjkgLTI4IC0zNyAtNTUgLTM5JiMxMDstMjMgLTIgLTQzIC0xMiAtNjEgLTMzIC0xNCAtMTYgLTM3IC0zNyAtNTEgLTQ2IC0yNCAtMTUgLTI1IC0xNSAtNDEgMjAgLTEzJiMxMDsyNyAtMTUgNDMgLTcgNzIgNiAyMSA4IDkyIDYgMTU4IC00IDE0NCA2IDE4MCA1NSAyMDcgNDIgMjIgNTAgNjIgMjAgOTEgLTExJiMxMDsxMCAtMjAgMjIgLTIwIDI4IDAgMTEgODAgMSA5NSAtMTIgMTUgLTE1IDQ1IC0xMCA0NSA2IDAgOSAxMSAyMCAyNSAyNSAyOSAxMSYjMTA7NDIgMzcgMjcgNTIgLTExIDExIC00MiAtMTEgLTQyIC0zMCAwIC01IC02IC0xNSAtMTQgLTIxIC0xMyAtMTEgLTE4IDIgLTI4IDc3JiMxMDstMSA3IC0yMCAyMyAtNDIgMzUgbC00MSAyMSA0MCA3IGMyMiA0IDQ0IDUgNDggMiA1IC0zIDE3IDMgMjggMTIgMTggMTggMTggMTgmIzEwOy03IDQyIC0yNSAyMyAtMjYgMjQgLTggNTEgMTAgMTUgMTcgMzkgMTYgNTQgLTEgMTUgNyA1MSAxOCA4MCAyNCA2NCAyNSA4MSA0JiMxMDsxNDIgLTI3IDgwIDUgMTEwIDEzNCAxMjMgNTQgNSA2MiA5IDYyIDI2IDAgMTYgMyAxOCAxMiA5IDggLTggOCAtMTUgMCAtMjR6JiMxMDttLTMyNjQgLTYgYzEyIC04IDIyIC0xMSAyMiAtNiAwIDQgNSAzIDEwIC0yIDcgLTcgNyAtMjEgLTEgLTQyIC0xMCAtMjggLTE0JiMxMDstMzEgLTM3IC0yNiAtMTUgNCAtNDMgMTUgLTY0IDI1IC0zMCAxNSAtMzUgMjMgLTMxIDQxIDQgMTMgMTEgMjYgMTcgMzAgMTQgOSYjMTA7NTQgLTEgODQgLTIweiBtMTgyOCAtMzcgYy00IC0xNCAtMTEgLTIzIC0xNiAtMjAgLTExIDcgLTEzIDQ4IC0zIDU4IDEzIDE0IDI2JiMxMDstMTIgMTkgLTM4eiBtLTQzODEgLTIwIGMzMiAtMzIgMzUgLTQxIDM1IC05MSBsMCAtNTUgLTMyIDMgYy0zMiAzIC0zMyA0IC00NCYjMTA7NzIgLTEwIDYwIC05IDEwNiAyIDEwNiAyIDAgMTkgLTE2IDM5IC0zNXogbTUyNzUgLTE0IGMwIC0xMCAtNDUgLTE4IC03OSAtMTMmIzEwOy0xOSAzIC0yMSA2IC0xMCAxMyAxOCAxMSA4OSAxMiA4OSAweiBtLTM1OTAgLTExIGMwIC01IC00IC0xMCAtMTAgLTEwIC01IDAmIzEwOy0xMCA1IC0xMCAxMCAwIDYgNSAxMCAxMCAxMCA2IDAgMTAgLTQgMTAgLTEweiBtMTgwIC01MiBjMCAtNSAtMTEgLTggLTI1IC04JiMxMDstMjggMCAtNDEgMjAgLTMxIDQ2IDUgMTQgMTAgMTMgMzEgLTggMTQgLTEyIDI1IC0yNiAyNSAtMzB6IG0tMTQ2NSAtMzggYzExJiMxMDstNSAxNCAtOSA4IC05IC03IC0xIC0xMyAtMTIgLTEzIC0yNiAwIC0zMCAtNSAtMzIgLTg3IC00MyAtNjAgLTggLTYzIC04IC02MyYjMTA7MTIgMCAzMiAyNyA2NCA1OCA2OSA0NiA3IDc2IDYgOTcgLTN6IG0xMjgwIC0zMCBjNyAtMjMgLTIgLTQzIC0xNiAtMzUgLTEyIDgmIzEwOy0xMiA1NSAwIDU1IDUgMCAxMiAtOSAxNiAtMjB6IG0zNTU5IC02IGMyMSAtOCAyMSAtNjcgMSAtODQgLTI0IC0yMCAtNDUgLTQmIzEwOy00NSAzMyAwIDE4IDUgMzggMTIgNDUgMTQgMTQgMTIgMTQgMzIgNnogbS0zNDA0IC00OCBjMCAtOCAxMCAtMTcgMjMgLTIxIDMwJiMxMDstOSA0IC0xOSAtMjggLTExIC0yNCA2IC0zNCAzNCAtMTkgNDkgOSA5IDI0IC0yIDI0IC0xN3ogbTIwOSAtMjcgYzE3IC0yNCA0MCYjMTA7LTI0IDU3IC0xIDEzIDE2IDE0IDE1IDIwIC02IDQgLTEyIDE3IC0yNSAzMCAtMjggMTQgLTQgMjQgLTE0IDI0IC0yMyAwIC05IDUmIzEwOy0yMiAxMiAtMjkgOSAtOSA4IC0xMiAtNiAtMTIgLTEwIDAgLTIwIDkgLTIzIDE5IC02IDIzIC0zOSAzNCAtNjQgMjAgLTI3IC0xNCYjMTA7LTMzIC0xMiAtNzIgMjUgLTIwIDE5IC00MiAzNiAtNDkgMzggLTYgMiAtOCAxMCAtNCAxNiAxMCAxNyA1OCA0IDc1IC0xOXomIzEwO20tMTU2MCA0IGMtMSAtMTAgLTUgLTI5IC05IC00MyAtNyAtMjEgLTggLTE5IC05IDE4IC0xIDIzIDQgNDIgOSA0MiA2IDAgMTAmIzEwOy04IDkgLTE3eiBtMjY5MSAxIGMwIC05IC01IC0xNCAtMTIgLTEyIC0xOCA2IC0yMSAyOCAtNCAyOCA5IDAgMTYgLTcgMTYgLTE2eiYjMTA7bTMwNyAwIGMtMyAtMyAtMTIgLTQgLTE5IC0xIC04IDMgLTUgNiA2IDYgMTEgMSAxNyAtMiAxMyAtNXogbTI2OTAgLTM2IGMtMyYjMTA7LTcgLTUgLTIgLTUgMTIgMCAxNCAyIDE5IDUgMTMgMiAtNyAyIC0xOSAwIC0yNXogbS0zMDgzIC0yMCBjLTcgLTEyIC03NCAtMTAmIzEwOy03NCAyIDAgNSAxMSAxMiAyNSAxNiAxNCAzIDI1IDExIDI1IDE3IDAgNiA2IDIgMTQgLTggOCAtMTEgMTIgLTIzIDEwIC0yN3omIzEwO20tMTIwMCAxMSBjLTYgLTExIC0yNCAtMiAtMjQgMTEgMCA1IDcgNyAxNSA0IDggLTQgMTIgLTEwIDkgLTE1eiBtLTM2NyAtMTUmIzEwO2MxNyAtMTcgMTYgLTQ0IC0xIC00NCAtMTcgMCAtMzggMjQgLTI5IDMzIDMgNCAtMyA3IC0xNSA3IC0xMyAwIC0yMiA2IC0yMiAxNSYjMTA7MCAxMiA3IDE0IDI3IDkgMTUgLTQgMzMgLTEzIDQwIC0yMHogbTg3NiAxIGwyMyAtMjYgMjUgMjAgYzM3IDI5IDc3IDM3IDg1IDE3JiMxMDsxMiAtMzAgLTUgLTYxIC00OSAtODggLTQ5IC0zMSAtOTIgLTM1IC0xNDAgLTE0IC01NiAyNSAtNzYgNDggLTcwIDc4IDUgMjcgMTImIzEwOzMwIDg1IDM2IDkgMSAyOCAtOSA0MSAtMjN6IG0zMjcgMTUgYzAgLTUgLTUgLTEwIC0xMSAtMTAgLTUgMCAtNyA1IC00IDEwIDMgNiYjMTA7OCAxMCAxMSAxMCAyIDAgNCAtNCA0IC0xMHogbTIxNTMgLTIgYzcgLTIwIC0xMCAtNTYgLTMyIC02OCAtMTIgLTYgLTIxIC0xNyYjMTA7LTIxIC0yNSAwIC05IC0xMSAtMTMgLTMxIC0xMyAtMjQgMSAtMjcgMyAtMTUgMTAgOSA1IDE2IDE1IDE2IDIzIDAgMTMgNjAgODQmIzEwOzcxIDg1IDQgMCA5IC02IDEyIC0xMnogbS00NzQzIC04IGMwIC01IC01IC0xMCAtMTEgLTEwIC01IDAgLTcgNSAtNCAxMCAzIDYgOCYjMTA7MTAgMTEgMTAgMiAwIDQgLTQgNCAtMTB6IG0yNTQwIC0zNiBjMCAtOCAtNzIgLTc0IC04MSAtNzQgLTQgMCAtMTAgLTExIC0xMyYjMTA7LTI1IC02IC0yNSAtMjAgLTMzIC0zMCAtMTYgLTExIDE3IDcgNzQgMjUgNzggOSAzIDE5IDEzIDIyIDI0IDQgMTQgMTQgMTkgNDEmIzEwOzE5IDIwIDAgMzYgLTMgMzYgLTZ6IG0zMTYgLTE5IGMtOSAtNyAtMTYgLTE3IC0xNSAtMjEgNCAtMjIgLTIgLTc3IC03IC03MSAtNyYjMTA7NyAtMTQgOTkgLTggMTA5IDIgMyAxNCA0IDI1IDEgMjAgLTYgMjEgLTcgNSAtMTh6IG0yMjAyIC0zIGMyIC03IC0zIC0xMiAtMTImIzEwOy0xMiAtOSAwIC0xNiA3IC0xNiAxNiAwIDE3IDIyIDE0IDI4IC00eiBtLTMxNjEgLTQ4IGMtOSAtOSAtMjggNiAtMjEgMTggNCA2JiMxMDsxMCA2IDE3IC0xIDYgLTYgOCAtMTMgNCAtMTd6IG0xODU0IDExIGMtMSAtMTUgLTI0IC0xMiAtMjkgMyAtMyA5IDIgMTMgMTIgMTAmIzEwOzEwIC0xIDE3IC03IDE3IC0xM3ogbTE0MTggNiBjMTEgLTcgOSAtMTAgLTggLTE2IC0yNSAtOCAtNjQgMyAtNTYgMTYgOCAxMSA0NiYjMTA7MTIgNjQgMHogbS01NDc5IC00IGMwIC0yNCAyNSAtMTI1IDMzIC0xMzUgNiAtOCAxMiAtMjEgMTMgLTMwIDEgLTEwIDkgLTM5IDE4JiMxMDstNjcgOSAtMjcgMTYgLTcxIDE2IC05NyAwIC00NyA3IC01NSA0NCAtNDkgNCAxIDQyIC0zIDg0IC05IDUzIC03IDgxIC0xNiA5NCYjMTA7LTMwIDEwIC0xMSAyNCAtMjAgMzEgLTIwIDI4IDAgMTEzIC05OCAxMzIgLTE1MyA2IC0xNiAxNSAtMjkgMjAgLTI5IDE2IC0xIDM1JiMxMDs0NCAzNSA4NSAwIDM3IDIzIDEwNyAzNSAxMDcgNCAwIDE1IC01IDI2IC0xMCAyMyAtMTMgMjUgLTUwIDUgLTEzNCAtMjggLTExNyYjMTA7LTM4IC0yMjQgLTI2IC0yNjIgMTMgLTM3IDExIC01OCAtMTMgLTE2NCAtOSAtMzYgLTIxIC05OCAtMjggLTEzNyAtNyAtNDAgLTE1JiMxMDstNzMgLTE5IC03MyAtMTcgMCAtMjkgLTYzIC0zNCAtMTc4IC01IC0xMTkgLTE4IC0xNzEgLTM3IC0xNDEgLTEyIDE5IC02NCAxNCYjMTA7LTg4IC04IC0xNiAtMTUgLTIyIC0zMCAtMTkgLTU0IGwzIC0zNCA1MiAxIGM1MiAyIDUzIDIgNjMgLTM1IDUgLTIwIDEwIC04NiYjMTA7MTAgLTE0OCBsMCAtMTExIC0zMSAtMTEgYy00MCAtMTQgLTY5IC0xNCAtNjkgLTEgMCA2IC03IDEwIC0xNSAxMCAtOCAwIC0yNSYjMTA7MTEgLTM5IDI1IC0xNCAxNCAtMzMgMjUgLTQzIDI1IC0xMCAwIC0zMCAxMSAtNDUgMjUgLTMwIDI4IC02MCAzMSAtMTM3IDE0JiMxMDstNDEgLTkgLTUxIC0xNSAtNjIgLTQxIC0xMSAtMjYgLTEwIC0zNSA0IC02MCAxNSAtMjcgMTUgLTMxIDEgLTU0IC05IC0xMyAtMjYmIzEwOy0yNiAtMzggLTI4IC0xMSAtMiAtNDcgLTkgLTgwIC0xNSAtNjIgLTExIC03NiAtOSAtNzYgMTUgMCAxNyAtOSAxOCAtNDQgNCYjMTA7LTE0IC01IC0yNiAtMTYgLTI2IC0yMyAwIC0xNyAtNDIgLTM3IC03NyAtMzcgLTE0IDAgLTUyIDcgLTg0IDE1IC02MiAxNiAtNzkmIzEwOzE0IC03OSAtMTEgMCAtMTMgLTExIC0xNCAtNjUgLTkgLTQyIDUgLTcwIDMgLTc5IC00IC0xMCAtOCAtMTcgLTYgLTMxIDkgLTE3JiMxMDsxOSAtMTcgMjAgOSAyOSAxNCA2IDI2IDE3IDI2IDI2IDAgMTUgNSAxNyA0NSAxOSAxMSAxIDIwIDYgMjAgMTIgMCA2IDE2IDI3JiMxMDszNiA0NiAyMCAxOSAzOCA0MCA0MCA0NiAyIDYgMjQgMjAgNDkgMzEgNDAgMTcgNDIgMjAgMTggMjAgLTE2IDEgLTI4IDYgLTI4JiMxMDsxMSAwIDE2IC0xNjAgMTMgLTE2MCAtMiAwIC03IC01IC01IC0xMSA2IC04IDEzIC04IDI0IDEgNDEgOCAxNCAxMCAzNSA1IDUyJiMxMDstMTYgNjMgLTMgMTMzIDI0IDEzMyAxMCAwIDIxIDkgMjQgMjAgNyAyOCA2MyAyNyA5NCAtMiAxMyAtMTIgMjMgLTE3IDIzIC0xMSYjMTA7MCA2IDkgMTMgMjAgMTYgMTIgMyAyMCAxNCAyMCAyNSAwIDI5IDE2IDM2IDcyIDMzIDUxIC0yIDU1IDIgMzYgNDYgLTE5IDQyJiMxMDstMzkgNjAgLTg4IDc4IC0yNSA5IC01NSAyMSAtNjYgMjcgLTQ2IDIyIC05MCAtMTMgLTY2IC01MiA3IC0xMiA4IC0yMCAyIC0yMCYjMTA7LTUgMCAtMTAgLTkgLTEwIC0yMCAwIC0xMiAtNyAtMjAgLTE2IC0yMCAtOSAwIC0xOCA5IC0yMSAyMCAtMyAxMSAtMTQgMjAgLTI0JiMxMDsyMCAtMTIgMCAtMTkgNyAtMTkgMTggMCAxMCAtMjMgNDAgLTUxIDY2IC0zNyAzNCAtNTMgNTggLTU1IDc5IC0yIDE3IC05IDM2JiMxMDstMTQgNDEgLTYgNiAtMTAgMTggLTEwIDI3IDAgMTAgLTQgMjkgLTEwIDQ0IC05IDIyIC0xMyAyNCAtMzEgMTUgLTI2IC0xNCAtNjkmIzEwOy01IC02OSAxNSAwIDggLTQgMTUgLTEwIDE1IC01IDAgLTEwIDcgLTEwIDE2IDAgMTAgLTYgMTQgLTE0IDExIC0xOCAtNyAtMjYmIzEwOzEzIC0yNiA2MyAwIDI0IDUgNDAgMTUgNDQgOSAzIDE1IDE4IDE1IDQwIDAgMjEgOSA0NSAyMyA2MyAzOCA0NSA2MyAyMTcgNDQmIzEwOzI5NSAtNiAyNCAtMTEgMjcgLTUwIDI1IC0zOCAtMiAtNDIgMCAtNDUgMjQgLTYgNDkgNjYgNjkgNzggMjEgNSAtMjEgNjAgLTYwJiMxMDs2MCAtNDIgMCA4IDY0IDI3IDEzMCAzNyAxOSAzIDQ0IDExIDU1IDE4IDExIDcgMzkgMTYgNjMgMjAgNDMgNyA4NiA0MCAxMzYmIzEwOzEwNSAxMSAxNCA0MCA0OSA2NSA3OSBsNDYgNTMgODcgLTYgYzQ4IC00IDk4IC00IDExMiAwIDM4IDkgMzQgNDYgLTcgNzQgLTM5JiMxMDsyNyAtNDEgNTggLTYgMTMyIDIwIDQzIDI2IDQ4IDU2IDQ4IDE4IDAgMzMgLTEgMzMgLTN6IG0yMjY1IC0zOSBjMjMgLTEwIDMxJiMxMDstMzEgMTIgLTI5IC00IDEgLTE2IDEgLTI3IDEgLTEzIDAgLTIwIDcgLTIwIDIwIDAgMjMgMSAyNCAzNSA4eiBtMTUwMCAtNDAmIzEwO2MxMiAtNTQgLTQyIC03NSAtMTExIC00MiAtMzcgMTggLTM5IDIyIC0yMSA0NSAxNiAyMSAzNCAyNyA4NCAyOCAzOSAxIDQyIC0xJiMxMDs0OCAtMzF6IG0zNDUgMTIgYzYgLTEyIDggLTMwIDUgLTQxIC02IC0xOSAtMTIgLTE5IC05MyAtMTMgLTQ4IDMgLTExNCAxMCYjMTA7LTE0NyAxMyBsLTYwIDggNDAgNyBjMjIgNCA0NyAxMCA1NSAxNCA4IDMgNDggNyA4OSA3IDQ4IDEgNzYgNSA3OSAxMyA2IDE4IDIwJiMxMDsxNCAzMiAtOHogbS0xNzA0IC03IGMtMyAtNCA0IC0xMiAxNiAtMTkgbDIzIC0xMiAtMjggLTExIGMtNTEgLTIwIC0xMTcgLTYmIzEwOy0xMTcgMjQgMCA5IDMgMTQgOCAxMSA0IC0yIDIzIC0xIDQyIDQgNDYgMTEgNjUgMTIgNTYgM3ogbTI0NTggLTE2IGMxNSAtMjUmIzEwOy02IC0zNyAtMTExIC02NCAtMTkgLTQgLTIzIC0xIC0yMyAxOCAxIDUzIDEwNyA5MCAxMzQgNDZ6IG0tMjcwMiAtMyBjMjEgLTMmIzEwOzQyIC0xMiA0OSAtMjAgNiAtOCAyMCAtMTQgMzAgLTE0IDExIDAgMTkgLTcgMTkgLTE1IDAgLTkgMTEgLTI2IDI1IC0zOSAzMSYjMTA7LTI5IDI2IC00NCAtMjQgLTc1IC01MyAtMzIgLTYwIC03MyAtMTkgLTEwOSAyMCAtMTggMjggLTM1IDI4IC01OCAwIC0zNyA4JiMxMDstNjQgMjAgLTY0IDQgMCAxMyAyMCAyMCA0NCAxNCA1MSAzNyA2NyA0OSAzMyA0IC0xMiA3IC02MiA2IC0xMTIgLTEgLTc3IC0zJiMxMDstOTAgLTE4IC05MyAtMTIgLTMgLTIxIDYgLTI4IDI3IC02IDE3IC0xNiAzMSAtMjIgMzEgLTEzIDAgLTY3IC03MSAtNzkgLTEwMyYjMTA7LTE0IC0zMyAtNTIgLTE4IC02MiAyNiAtMTEgNDIgLTIwIDQ2IC0zOCAxNyAtMTUgLTIzIC00OCAtMjcgLTQ4IC01IDAgOCAtMyYjMTA7MTUgLTggMTUgLTEyIDAgLTM5IC0zNSAtMzUgLTQ2IDUgLTE2IC0xOCAtMzEgLTU1IC0zNiAtMjUgLTQgLTM1IC0xIC0zOSAxMSYjMTA7LTQgOSAtMTkgMjkgLTM1IDQ0IC0yMSAxOSAtMjggMzMgLTIzIDQ1IDUgOSAxMSAzNCAxNCA1NiA2IDM3IDcgMzggNTEgNDIgNTYmIzEwOzUgODcgMjUgOTEgNjEgNyA1MSAwIDczIC0yNCA3MCAtMjEgLTIgLTIyIDEgLTE5IDU4IDIgMzMgOCA2MiAxMyA2MyA1IDIgOSAxMiYjMTA7OSAyMiAwIDExIDExIDM2IDI1IDU2IDE0IDIwIDI1IDQzIDI1IDUwIDAgMTcgMzAgMzQgNTAgMjkgOCAtMiAzMiAtNyA1MiAtMTF6JiMxMDttMjIyMSAtMTcxIGM1MiAtNCA1NyAtNiA2MiAtMzIgMTkgLTEwMCA0MyAtMTU1IDY4IC0xNTggMTggLTMgMzAgLTEyIDEyIC0xMCYjMTA7LTEyIDEgLTIxIC01IC0yMyAtMTcgLTIgLTExIDAgLTE2IDcgLTEyIDE4IDExIDEzIC0zIC05IC0yNiBsLTIwIC0yMiAwIDMyIGMwJiMxMDsxOCAtNCAzMiAtMTAgMzIgLTUgMCAtMTAgLTUgLTEwIC0xMSAwIC04IC01IC04IC0xNSAxIC04IDcgLTE1IDkgLTE1IDUgMCAtNCYjMTA7LTYgLTIgLTE0IDQgLTcgNiAtMTYgMjkgLTIwIDUxIC0zIDIxIC0xNCA0NSAtMjQgNTIgLTIzIDE2IC00NCA1MyAtMzUgNjIgNCAzJiMxMDstNCA1IC0xNyA0IC0xMiAtMiAtMjUgMyAtMjcgMTAgLTMgOCA2IDEyIDI3IDEyIDI4IDAgMzEgMyAyNSAyMyAtMyAxMiAtMyAxNyYjMTA7MiAxMiA0IC02IDIwIC0xMSAzNiAtMTJ6IG02ODIgLTQzIGMzIC01IC0zIC0xMCAtMTQgLTEwIC0xMiAwIC0yMSA1IC0yMSAxMCAwJiMxMDs2IDYgMTAgMTQgMTAgOCAwIDE4IC00IDIxIC0xMHogbS01NTcgLTMyOCBjMCAtMzQgLTEgLTM1IC0xNCAtMTcgLTggMTAgLTE0JiMxMDszMiAtMTQgNDggMCAyNCAzIDI3IDE0IDE4IDggLTcgMTQgLTI4IDE0IC00OXogbS0yMTA4IC00MiBjMCAtMTYgLTQgLTMwIC0xMCYjMTA7LTMwIC0xMSAwIC0xNCA0MyAtMyA1MyAxMSAxMiAxMyA4IDEzIC0yM3ogbS0zNDAgLTY2IGMwIC0xNSAtNiAtMjQgLTE1IC0yNCYjMTA7LTE4IDAgLTMwIDI0IC0yMSA0NSA4IDIyIDM2IDYgMzYgLTIxeiBtMjExNyA2IGMzIC0xMSAxMCAtMjAgMTcgLTIxIDYgLTEgMjYmIzEwOy0yIDQ0IC00IDQ1IC00IDY4IC0yNyA4NyAtOTAgMTQgLTQzIDIwIC01MiAzNiAtNDggMzYgMTAgNjkgLTYgNjkgLTMyIDAgLTE1JiMxMDs2IC0yNSAxNCAtMjUgMTYgMCAyNiAyMSAyNiA1NiAwIDEzIDYgMjQgMTMgMjQgMTggMCA4NyAtNjcgODcgLTg0IDAgLTkgNiAtMTYmIzEwOzE0IC0xNiA4IDAgMTkgLTE1IDI2IC0zMiAxOCAtNTEgNDAgLTEzNyA0MCAtMTU4IDAgLTM0IC0yMiAtNjggLTUxIC04MSAtMjgmIzEwOy0xMSAtMzkgLTI5IC0xOSAtMjkgNiAwIDEwIDUgMTAgMTAgMCAxOCA1NyAxMSA4NCAtMTEgMjEgLTE3IDI2IC0yNyAyMiAtNTYmIzEwOy0yIC0xOSAtOCAtMzkgLTE1IC00NiAtNiAtNiAtMTEgLTI2IC0xMSAtNDMgMCAtNDkgLTIyIC0xMzggLTM2IC0xNTAgLTcgLTYmIzEwOy0xNiAtMzEgLTIwIC01NSAtNCAtMjQgLTE1IC02MSAtMjUgLTgxIC0xMSAtMjEgLTE5IC00OCAtMTkgLTYyIDAgLTE0IC02IC0yOSYjMTA7LTE0IC0zMyAtMjkgLTE3IC04NCAtMTAyIC05MSAtMTQxIC02IC0zNSAtMTEgLTQyIC0zNiAtNDcgLTIzIC01IC0zNCAtMiAtNDQmIzEwOzEyIC0yMCAyNSAtMTkgMzUgMTAgNzQgMTQgMTkgMjggNDIgMzEgNTIgNCA5IDEwIDE3IDE0IDE3IDQgMCAxMyAyNiAyMSA1NyA3JiMxMDszMiAyMSA2NSAzMSA3NSAxMCAxMCAyNCA0MiAzMCA3MSA2IDI4IDE3IDU3IDI1IDYzIDE4IDE1IDE2IDI3IC03IDU0IC0xNSAxNyYjMTA7LTIwIDM3IC0yMCA3NiAwIDQ0IC0zIDU0IC0yMCA1OSAtMjMgNyAtNzAgNzYgLTcwIDEwMiAwIDkgLTkgMjcgLTIxIDM5IC0xMSYjMTA7MTIgLTIzIDQxIC0yNiA2MyAtNCAyNSAtMTMgNDcgLTI1IDU1IC0yMyAxNiAtNDggOTMgLTQ4IDE1MCAtMSA0MCAtMSA0MSAtMTgmIzEwOzIxIC05IC0xMiAtMjQgLTI0IC0zMyAtMjcgLTIxIC04IC01OSAxOCAtNjAgNDAgMCA5IC01IDIgLTEwIC0xNyAtOCAtMjUgLTYmIzEwOy00NSA1IC03OSAxNyAtNDkgMjAgLTkwIDEwIC0xNDAgLTggLTM4IC03NSAtODYgLTEyMSAtODYgLTIzIDAgLTM1IC02IC00NCYjMTA7LTIzIC03IC0xMyAtMjMgLTI2IC0zNSAtMjkgLTEzIC0zIC0yOSAtMTMgLTM1IC0yMSAtMjIgLTI2IC04MCAtNDMgLTE2OCAtNDkmIzEwOy02NiAtNSAtMTAwIC0xMyAtMTQ3IC0zNSAtNTkgLTI4IC0xMjQgLTM4IC0xMjQgLTIwIDAgNSAtMTUgMTUgLTM0IDIxIC0xOSA2JiMxMDstMzkgMTcgLTQ1IDI0IC02IDcgLTMwIDE5IC01MyAyNiAtMjQgOCAtNDYgMTggLTUwIDI0IC0zIDUgLTE3IDExIC0zMCAxMiAtNDgmIzEwOzUgLTg0IDE3IC0xMDMgMzQgLTExIDEwIC0zNyAyMyAtNTggMjggLTIxIDYgLTU0IDI3IC03NSA0OSAtNjYgNjggLTY2IDY4IC0zNyYjMTA7OTcgMzggMzggMzYgMTEyIC01IDE2OCAtNDggNjUgLTM4IDE0OCAxOCAxNDggMTUgMCA0MSA0IDU3IDggMTcgNCA0OCA1IDcwIDImIzEwO2w0MCAtNiAtNTAgLTggYy0yNyAtNSAtNTMgLTE0IC01NyAtMTkgLTkgLTE1IDkgLTQ3IDI3IC00NyAyNiAwIDY1IC0yMyA3MSYjMTA7LTQyIDggLTI4IDM2IC0xOCA0NyAxNyAxMiAzOCAyMyA0NSA2NyA0NSA0MiAwIDEzMiAzMCAxNDMgNDcgMTMgMjAgNDAgMTUgNjAmIzEwOy0xMiAyNSAtMzUgMzQgLTExOCAxNSAtMTQ3IC0yMiAtMzQgLTI4IC03OCAtMTYgLTEyNSA5IC0zNiAxNSAtNDMgMzQgLTQzIDEzJiMxMDswIDM3IDggNTQgMTkgMzEgMTggMzIgMTggNzMgLTQgMzkgLTIwIDQyIC0yNCAzOSAtNjEgLTMgLTQ3IDUgLTYwIDQwIC02OSAyNSYjMTA7LTYgMjYgLTUgMzAgNDIgMyAyNiAxIDU2IC00IDY2IC01IDEwIC01IDE3IDEgMTcgNSAwIDExIC03IDE1IC0xNSA1IC0xMyAxMCYjMTA7LTEzIDQzIC0xIDIxIDggNTAgMTcgNjQgMjAgNTYgMTIgNDYgNzEgLTE1IDg3IC01NSAxNSAtNjggMjcgLTYyIDU4IDE4IDk4IDE4JiMxMDsxMDEgLTMgMTAxIC0xMiAwIC0yMSAtOCAtMjMgLTIyIC0yIC0xMiAtOSAtMjMgLTE1IC0yNiAtMjMgLTcgLTE2IDg1IDcgMTA4JiMxMDsxMSAxMSAyMCAyOSAyMCA0MCAwIDIyIDEgMjIgNDIgMjUgMjIgMiAyNiAtMSAxNyAtMTEgLTYgLTcgLTggLTE4IC00IC0yNCAzJiMxMDstNSAxIC0xMCAtNCAtMTAgLTYgMCAtMTEgLTUgLTExIC0xMSAwIC0xMyAzOSAtMiA2MSAxOCAxMCA4IDE5IDEwIDIwIDUgNiAtMTMmIzEwOzEwOSAtMjUgMTA5IC0xMiAwIDE4IDcxIDgwIDkyIDgwIDExIDAgMjIgLTggMjUgLTIweiBtLTEyNjcgLTI3NSBjMTQgLTY5IDU1JiMxMDstOTggNzkgLTU3IDkgMTUgMTAgMTMgMTEgLTEwIDAgLTE1IC02IC0zMSAtMTMgLTM1IC0yMiAtMTQgLTM3IC02MiAtMzcgLTExOCYjMTA7MCAtNDYgNSAtNjAgMzAgLTg4IDE3IC0xOSAzMCAtNDAgMzAgLTQ1IDAgLTYgOSAtMTYgMjAgLTIyIDExIC02IDIwIC0xNyAyMCYjMTA7LTI1IDAgLTggOCAtMjMgMTggLTMzIDE5IC0yMSAyNiAtNDEgMjMgLTY4IC0xIC0xMiAtNjYgLTQgLTkwIDEwIC0xNSAxMCAtNTEmIzEwOy0yMSAtNTEgLTQzIDAgLTkgLTEwIC0yOCAtMjMgLTQzIC0xOCAtMjEgLTM0IC0yOCAtODMgLTMzIC0zNyAtNCAtNjQgLTMgLTY4JiMxMDszIC0zIDUgLTggNjUgLTEwIDEzMyAtNCAxMDYgLTEgMTM5IDIwIDIyNyAxMyA1NyAyNCAxMTMgMjQgMTI0IDAgMzQgMzEgMTI3JiMxMDs0NyAxNDMgMjMgMjMgNDYgMTQgNTMgLTIweiBtLTExMTMgLTcgYy0zIC04IC02IC01IC02IDYgLTEgMTEgMiAxNyA1IDEzIDMgLTMmIzEwOzQgLTEyIDEgLTE5eiBtMzQwMyAtMjggYzAgLTUgLTUgLTEwIC0xMSAtMTAgLTUgMCAtNyA1IC00IDEwIDMgNiA4IDEwIDExIDEwJiMxMDsyIDAgNCAtNCA0IC0xMHogbS0xNDAzIC02MiBjLTMgLTggLTYgLTUgLTYgNiAtMSAxMSAyIDE3IDUgMTMgMyAtMyA0IC0xMiAxJiMxMDstMTl6IG0tMTYzMSAtMTIgYzMgLTE0IDMgLTI5IDAgLTM0IC0zIC01IC02IC00MSAtNyAtODAgLTEgLTU0IC01IC03MiAtMTYmIzEwOy03MiAtNyAwIC0yMiAtNSAtMzMgLTEyIC0zMiAtMjAgLTM2IDEgLTYgMjcgMjcgMjMgMjggMjggMjIgNzkgLTcgNjcgMiAxMTYmIzEwOzIwIDExNiA4IDAgMTYgLTExIDIwIC0yNHogbTM5OCAtMTQ4IGM2IC0xMiAyMiAtMjUgMzYgLTI4IDIzIC01IDI0IC05IDI0IC04MyYjMTA7LTEgLTQzIC03IC04OSAtMTQgLTEwMSAtMTEgLTIyIC0xNCAtMjMgLTQwIC05IC0xOSA5IC0zMSAyNSAtMzUgNDYgLTQgMTggLTExJiMxMDszNyAtMTQgNDIgLTQgNiAtMTMgMzAgLTIwIDU0IC0xMSAzOSAtMTEgNDUgNCA1MyA5IDUgMjAgMjEgMjYgMzUgMTAgMjggMTYgMjYmIzEwOzMzIC05eiBtMjQ5MiAtMTkgYzEyIC0xMCA3IC02NiAtNyAtNzUgLTUgLTMgLTEyIDMgLTE2IDEzIC0zIDEwIC0xNSAyNiAtMjcmIzEwOzM1IC0xNiAxNCAtMTggMjAgLTggMjYgMTcgMTEgNDQgMTEgNTggMXogbS03OTEgLTE3NiBjLTEgLTI2IC02IC0zOSAtMTcgLTQxJiMxMDstMTkgLTQgLTMxIDQ3IC0xNiA2NiAyMCAyNCAzNSAxMyAzMyAtMjV6IG0tNDkxNSAtMzMgYzYgLTEyIDcgLTIwIDEgLTIwIC01IDAmIzEwOy03IC0xMCAtMyAtMjIgNCAtMTcgMiAtMjAgLTEyIC0xNSAtMTAgNCAtMjYgNyAtMzcgNyAtMTAgMCAtMTkgNyAtMTkgMTUgMCAxMCYjMTA7LTEwIDE1IC0yNyAxNiAtMjYgMSAtMjYgMiAxMiAyMCA1MSAyNCA3MiAyNCA4NSAtMXogbTMyNTIgLTcyIGMyIC0yMSAwIC0zOCYjMTA7LTQgLTM4IC00IDAgLTggMjEgLTcgNDggMSA1MiA2IDQ4IDExIC0xMHogbTIxMTAgLTIwMiBjOSAtMTggMTggLTYyIDE5IC05NyAxJiMxMDstMzUgNCAtNzIgNyAtODIgOCAtMzEgMzQgMTggMzEgNTggLTUgNDggMTEgNjAgNjEgNDkgbDQxIC05IDUgLTg5IGM1IC04MSAzJiMxMDstOTAgLTE1IC0xMDMgLTI2IC0xOCAtMjcgLTMzIC0yIC0zMyAzMCAwIDUxIC01MiA0NCAtMTEwIC00IC0zMyAtMTEgLTUwIC0xOSYjMTA7LTUwIC04IDAgLTE0IDEwIC0xNCAyNCAwIDM5IC0xNSAzOSAtMzMgMCAtMTAgLTE5IC0xNyAtMzkgLTE3IC00MyAwIC0xNSA0MyYjMTA7LTIxIDU5IC04IDEyIDEwIDEzIDcgOCAtMjMgLTQgLTIxIC0xIC01NCA3IC04MCA4IC0yNSAxNSAtMzYgMTUgLTI1IDEgMTEgMjEmIzEwOzQxIDQ0IDY4IDM2IDQwIDQ1IDQ2IDU4IDM1IDI1IC0yMSA1MiAtNzEgNTggLTEwNyAzIC0xOSAxMCAtMzIgMTQgLTMwIDUgMiAxMyYjMTA7LTQgMTggLTE0IDExIC0yMCAyIC02MCAtMTEgLTUyIC01IDMgLTcgMTIgLTMgMjAgMyA4IDAgMTUgLTYgMTUgLTYgMCAtMTEgNyYjMTA7LTExIDE1IDAgOCAtOSAxNSAtMjAgMTUgLTEzIDAgLTI0IDEwIC0zMCAyNSAtNSAxNCAtMTIgMjUgLTE1IDI1IC0xNCAwIC0zNCYjMTA7LTMwIC00OSAtNzIgLTggLTI2IC0yNyAtNTggLTQxIC03MiAtMjUgLTI1IC0zMyAtNjggLTE3IC05MyA0IC02IDI4IC0xNCA1NSYjMTA7LTE4IDQwIC02IDQ4IC0xMSA1MyAtMzQgMTEgLTU1IDIyIC02OSA2MSAtNzggbDM4IC05IC0zNCAtMTggYy0zMCAtMTYgLTMzJiMxMDstMjEgLTI2IC00OSAxOSAtOTIgMTkgLTk1IC0xNCAtMTI3IC0xNyAtMTcgLTM2IC0yOCAtNDIgLTI1IC03IDUgLTkgLTQgLTcmIzEwOy0yNiAyIC0yOCA4IC0zNSAyOCAtMzcgNDEgLTYgNDQgLTE5IDUgLTI2IC0zNyAtNyAtNjIgLTQxIC00NCAtNjEgNSAtNSA5IC0xOSYjMTA7OSAtMzIgMCAtMTcgLTcgLTIzIC0zNSAtMjkgLTQzIC04IC01MiAtMjIgLTYwIC0xMDQgLTcgLTU4IC0xMiAtNzAgLTQ4IC0xMDcmIzEwOy0yMyAtMjQgLTQ3IC00MyAtNTUgLTQzIC0xOCAwIC00NiAtMjkgLTY2IC02NyAtMTEgLTIzIC0zMyAtNDAgLTc4IC02MSAtMTA5JiMxMDstNTAgLTE2MiAtNjkgLTIxMCAtNzYgLTI3IC00IC05MiAtMTkgLTE0NSAtMzMgLTE2MSAtNDIgLTQzMyAtNTAgLTQzMyAtMTMgMCYjMTA7NiAtMjAgMTAgLTQ1IDEwIC0yNSAwIC00NSAtNCAtNDUgLTEwIDAgLTE2IC03MCAtMTIgLTg2IDUgLTkgOSAtMjggMTMgLTQ3IDExJiMxMDstMjMgLTMgLTQzIDQgLTc0IDI1IC00MSAyOSAtNDMgMzIgLTQwIDc3IDEgMjYgOSA1NCAxNyA2MiA5IDggMjEgMjcgMjggNDMgNiYjMTA7MTUgMTkgMjcgMjcgMjcgOSAwIDE0IDQgMTEgOCAtNiAxMCAyNyA0MSA2NiA2MSAxOSAxMCAzMCAyNSAzNCA0OCA0IDE5IDQgMzcmIzEwOzEgNDAgLTQgMyAtMjMgLTIgLTQ0IC0xMiAtNjYgLTMxIC0xMDIgLTM2IC0xMTQgLTE0IC05IDE3IC01IDIzIDEzIDIwIDQgMCA1JiMxMDs1IDMgMTIgLTUgMTMgNDkgNzcgNjUgNzcgNSAwIDEwIDYgMTAgMTQgMCA5IDcgMTIgMjAgOSAyMyAtNiAyNyAxNSA5IDQ5IC0xNCYjMTA7MjYgMSA0MiAzMCAzMyAyMiAtNyAyOSAtMzkgMTEgLTUwIC01IC0zIC0xMCAtMTcgLTEwIC0zMSAwIC0xMyA1IC0yNCAxMCAtMjQmIzEwOzYgMCAxMCAtNiAxMCAtMTQgMCAtMTggMjIgLTI2IDcwIC0yNiA0NyAwIDU5IDE3IDU2IDc4IC0xIDIzIDEgNDIgNiA0MiA0IDAgOCYjMTA7LTQgOCAtMTAgMCAtMTcgMjkgMSAzNiAyMiA1IDE2IDggMTggMTUgNyA3IC0xMSAxMSAtMTEgMjEgLTEgMTMgMTMgMTQgMTcgMTcmIzEwOzQ3IDAgOCA3IDE1IDE1IDE1IDggMCAxNyAxMiAyMSAyNyA1IDIxIDIgMzEgLTEzIDQzIC0xNCAxMiAtMTggMjQgLTE0IDUwIDMmIzEwOzE5IDggMzcgMTEgNDAgOSA4IDI3IDM5IDYwIDEwNSAyNSA0OSAzMSA1NSAzMSAzMyAwIC0xNCA1IC00OSAxMiAtNzYgOSAtNDQgOSYjMTA7LTUzIC01IC02NyAtMTkgLTE4IC0yMyAtNzAgLTYgLTgwIDUgLTQgMTQgLTE4IDE5IC0zMSAxMyAtMzMgNTYgLTUyIDc4IC0zNiA5JiMxMDs3IDI0IDE1IDMzIDE4IDEyIDQgMTYgMjIgMTcgODEgMyA4MyAtNCAxMTcgLTIwIDEwNyAtNiAtNCAtNSAtOSAzIC0xNSAxNyAtMTAmIzEwOzExIC0xNiAtMjUgLTI1IGwtMjkgLTcgOCA0NCBjMTIgNjUgMTAgODkgLTExIDE0MiBsLTE5IDQ5IDI4IDIwIGMxOSAxNCAyNiAyNiYjMTA7MjIgMzkgLTQgMTEgMyAzMCAxNiA0OSBsMjMgMzAgMTQgLTM4IGM4IC0yMCAxNiAtNTkgMTkgLTg3IDIgLTI3IDYgLTYxIDkgLTc0JiMxMDs5IC00MCAyNCAtNCAyNCA1NyAwIDI5IDUgNjMgMTIgNzUgNyAxMiAxNCA1NiAxNyA5NyA1IDYxIDkgNzUgMjMgNzUgOSAwIDIwIDQmIzEwOzI0IDggNCA0IDEzIC0yIDIxIC0xMyA4IC0xMSAyMCAtMjAgMjggLTIwIDEzIDAgMzEgNDIgMzYgODUgNCAyNSAtOSA3NSAtMTkmIzEwOzc1IC0xNyAtMSAtNTAgLTM5IC01NCAtNjEgLTMgLTE2IC03IC04IC0xMSAyNiAtOSA1OSAtNDQgMTM1IC02MyAxMzUgLTggMCYjMTA7LTE0IDcgLTE0IDE1IDAgOCAtOSAxNSAtMjAgMTUgLTIxIDAgLTI4IDMzIC0xMSA1OSA3IDEyIDEyIDExIDMwIC0xIDExIC04IDE4JiMxMDstMTggMTQgLTIyIC05IC05IDc0IC04NSAxMDYgLTk3IDMwIC0xMiA1MSAtNSA1MSAxNSAwIDkgMTEgMjMgMjUgMzIgMTQgOSAyNSYjMTA7MjYgMjUgMzggMCAxMSA1IDI4IDEwIDM2IDggMTIgMTAgOSAxMCAtMTMgMCAtMTUgNCAtMzUgOSAtNDUgNSAtOSAxMiAtMjUgMTUmIzEwOy0zNCAzIC0xMCAxMiAtMTggMjEgLTE4IDEyIDAgMTUgMTMgMTUgNjMgMSAzNCA4IDk2IDE2IDEzNyA4IDQxIDIwIDEwMyAyNSYjMTA7MTM4IDYgMzQgMTYgNjIgMjMgNjIgNiAwIDIyIDkgMzYgMjAgMzMgMjYgMzQgMjYgNTIgLTE0eiBtLTEwMTIgLTM1IGMwIC02IC00JiMxMDstMTMgLTEwIC0xNiAtNSAtMyAtMTAgMSAtMTAgOSAwIDkgNSAxNiAxMCAxNiA2IDAgMTAgLTQgMTAgLTl6IG0tMzQxNSAtMzAxJiMxMDtjMyAtNSAxIC0xMCAtNCAtMTAgLTYgMCAtMTEgNSAtMTEgMTAgMCA2IDIgMTAgNCAxMCAzIDAgOCAtNCAxMSAtMTB6IG0xNDAmIzEwOy02OSBjLTYgLTU5IC0yNCAtMTAxIC00MSAtMTAxIC04IDAgLTE0IDExIC0xNCAyNiAwIDE0IC00IDIzIC0xMCAxOSAtNiAtMyYjMTA7LTEwIDUgLTEwIDE5IDAgMTQgNSAyOCAxMCAzMSA2IDMgMTAgMTcgMTAgMzAgMCAyOSAyOSA0OSA0OCAzMyA4IC03IDExIC0yNiA3JiMxMDstNTd6IG0xNzc2IC01MyBjMTUgLTE2IDMyIC0yOCAzOCAtMjggMTkgMCA4MSAtNjggODEgLTg5IDAgLTE0IDkgLTI1IDI2IC0zMSYjMTA7MTQgLTYgMzMgLTE5IDQzIC0yOSA5IC0xMSAzOSAtMjYgNjYgLTM1IGw1MCAtMTYgMiAtNTIgYzIgLTcwIDE4IC04MiA5OSAtNzQmIzEwOzQ5IDUgNjQgMyA3NCAtMTAgOCAtOCAyNiAtMjIgNDIgLTMwIDE1IC04IDI4IC0yMyAyOCAtMzMgMCAtMTAgNyAtMjQgMTUgLTMxJiMxMDs4IC03IDE1IC0xNyAxNSAtMjIgMCAtNiAxMSAtMjMgMjUgLTQwIDE5IC0yMiAyNSAtNDEgMjUgLTc3IDAgLTM1IDcgLTU4IDI1JiMxMDstODUgMTggLTI3IDI1IC01MCAyNSAtODYgMCAtNDEgNSAtNTUgMzEgLTg1IDE3IC0xOSAzNyAtMzUgNDUgLTM1IDE2IDAgMzQmIzEwOy0zMSAzNCAtNTkgMCAtMTIgNCAtMjEgOCAtMjEgNSAwIDE0IC0xMSAyMCAtMjQgOSAtMTkgNyAtMzIgLTkgLTYyIC0yNSAtNTAmIzEwOy0yNCAtNjYgNSAtMTEzIDMxIC00OCA3NSAtNjYgMTIxIC01MCAxNyA3IDM2IDIxIDQxIDMyIDEyIDI4IDM0IDM0IDM0IDkgMCYjMTA7LTEwIDUgLTMzIDExIC01MSAxMCAtMjcgMTUgLTMxIDQ5IC0zMSAyMSAwIDQwIDQgNDIgOSAyIDUgMjIgMTIgNDUgMTYgNDAgNiYjMTA7NDMgNSA1MyAtMjEgNiAtMTUgMTcgLTMyIDI0IC0zOCAyOSAtMjQgMjUgLTc5IC01IC02MCAtNDkgMzAgLTExOSAxIC0xMTkgLTUwJiMxMDswIC0yMCAtNSAtMjYgLTIxIC0yNiAtMTUgMCAtMTkgNCAtMTIgMTMgMTUgMTkgNyA1NyAtMTYgODAgLTIwIDIwIC0yMSAyMCAtMzQmIzEwOzMgLTEwIC0xNCAtMjEgLTE3IC00NSAtMTEgLTE4IDMgLTMyIDEzIC0zMiAyMSAwIDE2IC0xNiAxOSAtMjUgNSAtNiAtMTAgLTEzMCYjMTA7LTcgLTE2NCA0IC0xNyA1IC0yMSAyIC0yMSAtMTQgMCAtMTIgNSAtMjEgMTEgLTIxIDcgMCAxMCAtMTIgNyAtMzAgLTQgLTI1IC0xJiMxMDstMzAgMTYgLTMxIDEyIDAgMzAgLTQgNDEgLTkgMTMgLTUgLTIxIC04IC05MCAtNyAtNjAgMCAtMTE1IDQgLTEyMCA4IC0yMiAxNiYjMTA7LTEwMiAzOSAtMTM4IDM5IC0yMSAwIC00NSA2IC01MyAxNCAtNyA4IC0zMyAxNyAtNTYgMjEgLTI0IDQgLTg0IDE4IC0xMzQgMzImIzEwOy03OCAyMSAtOTggMzEgLTE0NSA3MyAtMzUgMzMgLTU3IDYyIC02NCA4NyAtNyAyMSAtMTYgMzcgLTIyIDM2IC0yMCAtNCAtNDUmIzEwOzM2IC01MCA4MSAtNSAzOCAtMiA0OCAyMSA3MSAyNyAyNyA1MSAyOSA1MSA0IDAgLTggNCAtMjAgOSAtMjcgNCAtNyA2IC0yOSA0JiMxMDstNDkgLTQgLTQ5IDE5IC01NiAyOCAtOCA3IDQwIC0xMCAxMTUgLTMwIDEyNyAtNiA0IC0yMCA4IC0zMSA4IC00MiAxIC03NiA1NyYjMTA7LTU0IDkwIDggMTMgMTEgMTMgMjAgLTIgNSAtMTAgMTcgLTE4IDI0IC0xOCAyMCAwIDIwIDY0IDAgODAgLTggNyAtMTggMzQgLTIxJiMxMDs2MSAtNCAyNyAtOCA0OSAtMTAgNDkgLTIgMCAtMTMgLTkgLTI1IC0yMSAtMjggLTI4IC00MyAtMTkgLTQ3IDI5IC01IDcyIDM5JiMxMDsxMTUgOTMgOTAgMTkgLTkgMjggLTkgMzcgMCAxNyAxNyAtMTQgNDYgLTQ4IDQ3IC0yMSAwIC0yOSA4IC00MSA0MCAtMjAgNTUmIzEwOy0zMiAxMjggLTIzIDE0MCA0IDYgMTEgMjUgMTUgNDMgNCAxOCAxMyAzMiAyMSAzMiAxNyAwIDE4IDMzIDIgNjAgLTEwIDE2IC05JiMxMDsyOCA1IDY2IDkgMjUgMTUgNTAgMTIgNTQgLTExIDE4IC0yNCAxMDggLTE4IDEzMCA2IDIyIDYgMjIgMjEgLTYgOCAtMTYgMjgmIzEwOy00MSA0MyAtNTZ6IG0yMDAzIC0xNDggYy02IC04OCAtOSAtOTkgLTE1IC02NSAtMTEgNjIgLTEyIDEyNCAtMyAxOTUgbDggNjUgOSYjMTA7LTQ1IGM1IC0yNSA2IC05MCAxIC0xNTB6IG0tNDQ0NiA5MiBjMyAtMzEgMiAtMzIgLTI3IC0zMCAtMzUgMyAtMzggMTMgLTE1IDQ2JiMxMDsyMSAzMCAzOCAyMyA0MiAtMTZ6IG02MDQgLTYzIGMzIC0xNyAtMSAtODEgLTggLTE0MiAtMTQgLTEyMSAtMzEgLTE1NSAtNzMmIzEwOy0xNDIgLTIzIDcgLTI1IDI2IC0xMiAxMDggNCAyNiA0IDUwIC0xIDUzIC00IDMgLTggMTAgLTggMTUgMCA2IDQgOCA4IDUgMTkmIzEwOy0xMSA1MiAyNSA1MiA1NyAwIDczIDMzIDEwOSA0MiA0NnogbTQ3MDAgLTIyNCBjLTEwIC00OCAtMjYgLTUyIC0zMCAtOCAtNCAzNyYjMTA7MzEgMTAyIDM2IDY4IDEgLTExIC0xIC0zOCAtNiAtNjB6IG0tMzExMiAyMyBjMCAtNCAtMTQgLTggLTMxIC04IC0xNyAwIC0yOCA0JiMxMDstMjQgMTAgNyAxMSA1NSA5IDU1IC0yeiBtLTUwMCAtMTY5IGMwIC0xOCAtNCAtMjggLTEwIC0yNCAtNSAzIC0xMCAyMCAtMTAgMzYmIzEwOzAgMTggNCAyOCAxMCAyNCA2IC0zIDEwIC0yMCAxMCAtMzZ6IG0yMTkxIC04MiBjLTEwIC05IC0xMSAtOCAtNSA2IDMgMTAgOSAxNSYjMTA7MTIgMTIgMyAtMyAwIC0xMSAtNyAtMTh6IG0tMjA5MSAtMTkzIGMwIC0zMCAtMiAtMzQgLTE0IC0yNSAtMTAgOCAtMTYgOSAtMjEmIzEwOzEgLTEyIC0yMCAtMjUgLTEwIC0yNSAyMCAwIDMyIDkgMzcgMjggMTggOSAtOSAxMyAtNyAxOCA1IDEwIDI2IDE0IDIwIDE0IC0xOXomIzEwO20yMDcwIC0xNyBjMCAtNCA1IC01IDEwIC0yIDYgNCAxMCAtMTAgMTAgLTMzIDAgLTMxIC00IC00MSAtMjAgLTQ1IC0zNiAtOSYjMTA7LTU0IDQzIC0zNCAxMDUgNiAyMSA3IDIxIDIwIDMgOCAtMTAgMTQgLTIzIDE0IC0yOHogbTI1MCAtOTQgYzAgLTUgLTE1IC04JiMxMDstMzQgLTggLTE5IDAgLTM4IDMgLTQyIDggLTQgNCAxMSA3IDM0IDcgMjMgMCA0MiAtMyA0MiAtN3ogbS0yMjY3IC00OCBjMTkmIzEwOy0xOSA0OSAtMzggNjYgLTQxIDIzIC01IDMzIC0xNCA0MSAtNDAgNiAtMTkgMTggLTM3IDI1IC00MSA4IC01IDE2IC0yMCAxOSYjMTA7LTM2IDIgLTE1IDE0IC0zOSAyNSAtNTMgMzcgLTQ4IDI5IC01OSAtMzkgLTU2IC00NSAzIC02MyA4IC03MCAyMiAtNSA5IC0yMiYjMTA7MjMgLTM4IDI5IC0xNSA2IC0zNyAyOCAtNDcgNDkgLTExIDIwIC0yNSA0MiAtMzAgNDggLTYgNiAtMTIgNDMgLTEzIDgzIC0zIDg0JiMxMDs3IDkwIDYxIDM2eiBtMTk1MSAtMjUxIGMxNyAtNyAyMiAtMzQgNiAtMzQgLTUgMCAtMTAgNSAtMTAgMTAgMCA2IC05IDEwIC0yMCYjMTA7MTAgLTExIDAgLTIwIDUgLTIwIDEwIDAgMTEgMjAgMTMgNDQgNHogbTg2MCAtNTcxIGMtOCAtNDYgLTYgLTQzIC0zNCAtNDggLTEzJiMxMDstMyAtMjYgLTggLTI5IC0xMiAtMTQgLTE5IC02MCAtMzQgLTkyIC0zMSBsLTM0IDMgMzkgMjMgYzIxIDEzIDM2IDI1IDMzIDI5JiMxMDstMTEgMTAgNzQgNzMgOTkgNzMgMjMgMCAyNCAtMyAxOCAtMzd6IG0zODkxIC0xMzIgYy05IC0yOSAtMjMgLTE3IC0xNyAxNCAzJiMxMDsxNyA4IDIzIDE0IDE3IDYgLTYgNyAtMjAgMyAtMzF6IG0tMjIyNCAtNjI4IGM1IC0yOSA2IC03MSAyIC04NiAtNCAtMTUgLTEzJiMxMDstMTcgLTUxIC0xNSAtNDcgMyAtNDcgMyAtNTAgNDIgLTUgNTggMSA2NiA1MyA2NiAyNSAwIDQ2IC0zIDQ2IC03eiBtMTI0IC00OCYjMTA7bDAgLTUwIC01MCAwIC01MCAwIC0zIDUzIC0zIDUzIDUzIC0zIDUzIC0zIDAgLTUweiBtLTE3OSAtOTIgYzEzIC0xNyAxMyAtMTcmIzEwOzE0IDAgMCAxMCA4IDE3IDE5IDE3IDE5IDAgMTkgLTEgLTEgLTQyIC0xMSAtMjQgLTI1IC00NiAtMzEgLTUwIC0xNCAtOCAtMjcmIzEwOy0xIC0yNyAxNSAwIDcgNCA2IDEwIC0zIDIwIC0zMSAxMSAxNCAtMTAgNDggLTE3IDI4IC0xOCAzMiAtMyAzMiA4IDAgMjIgLTgmIzEwOzI5IC0xN3ogbTE1MSAtNSBjLTEgLTEzIC05IC0yNiAtMTcgLTMwIC0xMiAtNSAtMTIgLTcgMyAtNyAyNyAtMSAyMCAtMjEgLTgmIzEwOy0yMSAtMjIgMCAtMjUgNCAtMjUgNDAgMCAzNiAzIDQwIDI1IDQwIDIwIDAgMjQgLTUgMjIgLTIyeiBtLTE4NSAtMTYgYzMgLTkgMSYjMTA7LTI2IC0zIC0zNyAtNiAtMTUgLTggLTExIC04IDE4IC0xIDQwIDQgNDggMTEgMTl6IG04OCAtMTUgYzAgLTIxIC01IC0zNCAtMTMmIzEwOy0zNCAtMTAgMCAtMTEgOCAtMyAzNCA2IDE4IDEyIDMzIDEzIDMzIDIgMCAzIC0xNSAzIC0zM3oiLz4mI3hhOzxwYXRoIGQ9Ik00Mjk4IDg4MDMgYzcgLTMgMTYgLTIgMTkgMSA0IDMgLTIgNiAtMTMgNSAtMTEgMCAtMTQgLTMgLTYgLTZ6Ii8+JiN4YTs8cGF0aCBkPSJNMjM2MCA2NDAwIGMwIC01IDUgLTEwIDEwIC0xMCA2IDAgMTAgNSAxMCAxMCAwIDYgLTQgMTAgLTEwIDEwIC01IDAmIzEwOy0xMCAtNCAtMTAgLTEweiIvPiYjeGE7PHBhdGggZD0iTTIyOTAgNDU0MSBjMCAtNiA1IC0xMyAxMCAtMTYgNiAtNCAxMCAtMTIgOSAtMTggLTQgLTMxIDEgLTM1IDI0JiMxMDstMjQgMjEgMTAgMjMgMTQgMTMgMzkgLTcgMTkgLTE3IDI4IC0zMyAyOCAtMTMgMCAtMjMgLTQgLTIzIC05eiBtNDIgLTQzIGMtOSYjMTA7LTkgLTEyIC03IC0xMiAxMiAwIDE5IDMgMjEgMTIgMTIgOSAtOSA5IC0xNSAwIC0yNHoiLz4mI3hhOzxwYXRoIGQ9Ik0yMjk2IDQzNTMgYy0xMSAtMTEgLTYgLTIzIDEwIC0yMyA5IDAgMTIgLTUgOCAtMTIgLTUgLTcgLTMgLTggNyAtMiYjMTA7OCA1IDE5IDkgMjQgOSA2IDAgMTAgNyAxMCAxNSAwIDE0IC00NyAyNSAtNTkgMTN6Ii8+JiN4YTs8cGF0aCBkPSJNOTAyNSA2MjYwIGMtMyAtNSAtMSAtMTAgNCAtMTAgNiAwIDExIDUgMTEgMTAgMCA2IC0yIDEwIC00IDEwIC0zIDAmIzEwOy04IC00IC0xMSAtMTB6Ii8+JiN4YTs8cGF0aCBkPSJNOTA1NSA2MjYwIGMtMyAtNSAtMSAtMTAgNCAtMTAgNiAwIDExIDUgMTEgMTAgMCA2IC0yIDEwIC00IDEwIC0zIDAmIzEwOy04IC00IC0xMSAtMTB6Ii8+JiN4YTs8cGF0aCBkPSJNNDgzOSA1NTY4IGMtMTQgLTM0IC0xNiAtMTQ0IC00IC0xODUgMTYgLTUxIDMyIC0yMiA0NCA3NiAxMCA4MCA5JiMxMDsxMDQgLTEgMTIwIC0xNyAyOCAtMjMgMjcgLTM5IC0xMXoiLz4mI3hhOzxwYXRoIGQ9Ik00ODcwIDUzNDAgYy0xMCAtNiAtMTEgLTEwIC0yIC0xMCA2IDAgMTIgLTcgMTIgLTE1IDAgLTIxIDMwIC0zMSA0MSYjMTA7LTE0IDE2IDI2IDEwIDQ5IC0xMyA0OSAtMTMgMCAtMzAgLTUgLTM4IC0xMHoiLz4mI3hhOzxwYXRoIGQ9Ik05NDQgNDYxNSBjLTQgLTE0IC00IC0yOCAtMSAtMzEgMyAtNCAyIC0xNiAtMyAtMjkgLTExIC0zMCA2IC00NiAzNyYjMTA7LTM0IDIxIDcgNjMgNjMgNjMgODEgMCA4IC02NSAzOCAtODEgMzggLTUgMCAtMTEgLTExIC0xNSAtMjV6Ii8+JiN4YTs8cGF0aCBkPSJNNzAzIDQyNDQgYy0zIC04IC0xIC0yMCA2IC0yNyA4IC04IDExIC00IDExIDE2IDAgMzAgLTcgMzUgLTE3IDExeiIvPiYjeGE7PHBhdGggZD0iTTEwNDAgNDEwMCBjMCAtNSA1IC0xMCAxMSAtMTAgNSAwIDcgNSA0IDEwIC0zIDYgLTggMTAgLTExIDEwIC0yIDAmIzEwOy00IC00IC00IC0xMHoiLz4mI3hhOzxwYXRoIGQ9Ik05MTAgMzk1OCBjMCAtOSA1IC0yMCAxMCAtMjMgMTMgLTggMTMgNSAwIDI1IC04IDEzIC0xMCAxMyAtMTAgLTJ6Ii8+JiN4YTs8cGF0aCBkPSJNOTQwIDM5NDAgYzAgLTUgNSAtMTAgMTAgLTEwIDYgMCAxMCA1IDEwIDEwIDAgNiAtNCAxMCAtMTAgMTAgLTUgMCYjMTA7LTEwIC00IC0xMCAtMTB6Ii8+JiN4YTs8cGF0aCBkPSJNMTIwNSAzODE2IGMtMTQgLTEzIC0yNSAtMzAgLTI1IC0zNyAxIC0xMCA1IC04IDE1IDUgMTQgMTkgMTUgMTkgMzImIzEwOzAgMTAgLTExIDI1IC0xOSAzMyAtMTggOCAwIDIzIDIgMzMgMiAzNCAzIDE2IDQ0IC0yNiA1OCAtMzQgMTIgLTM5IDExIC02MiYjMTA7LTEweiIvPiYjeGE7PHBhdGggZD0iTTEwMzQgMzYzNCBjMyAtOCA2IC0xOCA2IC0yMCAwIC0zIDUgLTIgMTAgMSAxNSA5IDEyIDIyIC02IDI5IC0xMiA1JiMxMDstMTUgMiAtMTAgLTEweiIvPiYjeGE7PHBhdGggZD0iTTEwNDUgMzU5MCBjLTExIC01IC0zNSAtOSAtNTIgLTkgLTI0IC0xIC0zMyAtNiAtMzMgLTE3IDAgLTE0IC04JiMxMDstMTYgLTU1IC0xMSAtNTQgNSAtNTUgNSAtOTAgLTM1IC0zNCAtNDAgLTQxIC03NCAtMjEgLTEwNyAxMCAtMTYgLTIxIC00MCAtNTEmIzEwOy00MSAtMTMgMCAtMjMgLTQgLTIzIC04IDAgLTQgLTE2IC02IC0zNiAtNCAtMjggNCAtNDEgLTEgLTU5IC0xOSAtMTIgLTEzIC0zMiYjMTA7LTMxIC00NCAtMzkgLTExIC04IC0yMSAtMjUgLTIxIC0zNyAwIC0yMCA1IC0yMyA0MCAtMjMgMjIgMCA0MCA0IDQwIDEwIDAgNiA5JiMxMDs2IDI2IDAgNjQgLTI1IDE0OCAxNyAxNTkgODAgMTMgNzMgMTYgODEgNDAgOTAgMTMgNSAzMCAxOCAzNyAzMCAxNCAyMiA1NCAyNyYjMTA7NjAgOCA3IC0yMSAxMzMgLTEzIDE3NCAxMiA2MiAzOSA4NCAxMDAgMzUgMTAwIC0xMCAwIC0zMiA3IC00NyAxNSAtMzIgMTcgLTQ5JiMxMDsxOCAtNzkgNXoiLz4mI3hhOzxwYXRoIGQ9Ik0xMjE1IDM1NjAgYy0zIC01IDEgLTEwIDkgLTEwIDkgMCAxNiA1IDE2IDEwIDAgNiAtNCAxMCAtOSAxMCAtNiAwJiMxMDstMTMgLTQgLTE2IC0xMHoiLz4mI3hhOzxwYXRoIGQ9Ik01NzggMzQ0MyBjNyAtMyAxNiAtMiAxOSAxIDQgMyAtMiA2IC0xMyA1IC0xMSAwIC0xNCAtMyAtNiAtNnoiLz4mI3hhOzxwYXRoIGQ9Ik00MDAgMzQyMCBjMCAtMTEgNDAgLTM0IDQ3IC0yNiAzIDMgMyAxMiAwIDIxIC03IDE2IC00NyAyMSAtNDcgNXoiLz4mI3hhOzxwYXRoIGQ9Ik01MTM1IDQyMDAgYy03IC0xMiAxMiAtNTAgMjUgLTUwIDYgMCAxMCAxNCAxMCAzMCAwIDMwIC0yMSA0MiAtMzUmIzEwOzIweiIvPiYjeGE7PHBhdGggZD0iTTQyMzkgNDA2MyBjLTEgLTUgLTEgLTEyIDAgLTE3IDEgLTQgLTcgLTE2IC0xOSAtMjYgLTI1IC0yMiAtMjUgLTI1JiMxMDswIC01MCAxMSAtMTEgMjAgLTMzIDIwIC01MCAwIC0yMyA1IC0zMCAxOSAtMzAgMTEgMCAyMyA5IDI3IDIyIDYgMjAgOCAyMCAxOSYjMTA7NSA2IC05IDExIC0zMyAxMCAtNTQgLTMgLTc0IDU4IC04MiA5NCAtMTIgMjcgNTAgMjYgNjQgLTEgMTAxIC00MyA1NyAtNzcgODYmIzEwOy0xMjEgMTA2IC0zMiAxNCAtNDYgMTUgLTQ4IDV6Ii8+JiN4YTs8cGF0aCBkPSJNNTQ5MCA0MDM5IGMwIC0xNCA3IC0zNCAxNSAtNDUgMTUgLTE4IDE2IC0xNyA5IDE2IC04IDQ0IC0yNCA2MyAtMjQmIzEwOzI5eiIvPiYjeGE7PHBhdGggZD0iTTU1NTEgMzc1NiBjLTggLTIwIC04IC0zMyAtMiAtMzkgMTMgLTEzIDI0IDEzIDE5IDQ1IC00IDIyIC01IDIyJiMxMDstMTcgLTZ6Ii8+JiN4YTs8cGF0aCBkPSJNNTQ5MCAyODQ2IGMwIC05IDUgLTE2IDEwIC0xNiA2IDAgMTAgNCAxMCA5IDAgNiAtNCAxMyAtMTAgMTYgLTUgMyYjMTA7LTEwIC0xIC0xMCAtOXoiLz4mI3hhOzxwYXRoIGQ9Ik01NTM1IDI4MjAgYy00IC02IC0xMSAtOCAtMTYgLTUgLTE3IDExIC05IC0xNSAxMSAtMzUgMjEgLTIxIDQ1IC0xOCYjMTA7NTQgNyAxMCAyNiAtMzQgNTcgLTQ5IDMzeiIvPiYjeGE7PHBhdGggZD0iTTU2MzIgMjc0OCBjLTggLTExIC02IC0xNyA4IC0yNiAyNSAtMTUgMzggNCAxOCAyNCAtMTIgMTMgLTE3IDEzJiMxMDstMjYgMnoiLz4mI3hhOzxwYXRoIGQ9Ik01NTQwIDI2NTAgYy0xMiAtOCAtMTAgLTEwIDggLTEwIDEzIDAgMjAgNCAxNyAxMCAtNyAxMiAtNiAxMiAtMjUgMHoiLz4mI3hhOzxwYXRoIGQ9Ik01ODk3IDIzNTMgYy0xMiAtMTEgLTggLTIzIDggLTIzIDggMCAxNSA3IDE1IDE1IDAgMTYgLTEyIDIwIC0yMyA4eiIvPiYjeGE7PHBhdGggZD0iTTU4MzEgMjI0MSBjLTE2IC01MyAtNyAtNzAgMzQgLTY4IDQ2IDMgNTMgMTMgMjcgMzcgLTEyIDEyIC0yMiAzMiYjMTA7LTIyIDQ1IDAgMzkgLTI2IDI5IC0zOSAtMTR6Ii8+JiN4YTs8cGF0aCBkPSJNNTczMiAyMTk4IGMtMTYgLTE2IC0xNSAtNzMgMiAtMTIxIDggLTIxIDEyIC00NSAxMCAtNTUgLTUgLTIwIDEyJiMxMDstNTAgMjIgLTQwIDQgNCA3IDE4IDggMzAgMSAyMCA2IDIzIDQzIDIzIDUyIDAgNjkgMTQgNDggNDEgLTE0IDE4IC0xNiAxOCAtMjYmIzEwOzIgLTEyIC0yMiAtNDggLTI0IC01NSAtMyAtMyA4IC0xIDI5IDUgNDUgMTUgNDUgNCA5MCAtMjMgOTAgLTEyIDAgLTI3IC01IC0zNCYjMTA7LTEyeiIvPiYjeGE7PHBhdGggZD0iTTUxNjYgMTkzOCBjLTkgLTE4IC0zMSAtNDAgLTQ5IC00OSAtNjkgLTM0IC02NSAtMTQ4IDYgLTE0OSAyOSAwIDU0JiMxMDszNSA2MiA4NSA0IDMxIDEwIDQ0IDE1IDM1IDYgLTkgOCAtNiA5IDExIDAgMTMgMiA0MCAzIDU5IDQgNDggLTI1IDUzIC00NiA4eiIvPiYjeGE7PHBhdGggZD0iTTU0NjAgMTk0MSBjMCAtMzcgMTkgLTcxIDM5IC03MSAxOSAwIDMwIC0yMSA0NSAtOTIgNCAtMTYgMTMgLTI4IDIxJiMxMDstMjggMTEgMCAxNSAxMiAxNSA0OSAwIDI3IDMgNjIgNiA3OSA2IDI4IDMgMzIgLTQ2IDU2IC02MiAzMSAtODAgMzMgLTgwIDd6Ii8+JiN4YTs8cGF0aCBkPSJNNDk4MCAxOTQxIGMwIC01IC0xMCAtMTMgLTIyIC0xNiAtODAgLTIzIC05MSAtMzYgLTY2IC05MCAxNCAtMzAgMjQmIzEwOy0zMiAzMSAtNSAzIDExIDAgMjAgLTYgMjAgLTggMCAtOCAzIDEgMTIgNiA2IDI3IDExIDQ3IDEwIDI5IC0xIDM3IDMgNDkgMjcmIzEwOzExIDIxIDEyIDMxIDMgNDAgLTEzIDEzIC0zNyAxNSAtMzcgMnoiLz4mI3hhOzxwYXRoIGQ9Ik01NjAwIDE5NDAgYzAgLTUgOSAtMTAgMjEgLTEwIDExIDAgMTcgNSAxNCAxMCAtMyA2IC0xMyAxMCAtMjEgMTAmIzEwOy04IDAgLTE0IC00IC0xNCAtMTB6Ii8+JiN4YTs8cGF0aCBkPSJNNTczNSAxODczIGMtMTEgLTEzIC0yOSAtMjMgLTQwIC0yNCAtMTQgMCAtMTYgLTIgLTUgLTYgOCAtMyAyNSAtMTUmIzEwOzM3IC0yNiAxMyAtMTEgMjQgLTE5IDI1IC0xNiAyMSAzMyAyNiA0OSAxOSA0OSAtNSAwIC0xMSAxMCAtMTMgMjMgbC0zIDIyIC0yMCYjMTA7LTIyeiIvPiYjeGE7PHBhdGggZD0iTTU1OTEgMTcwNCBjMCAtMTEgMyAtMTQgNiAtNiAzIDcgMiAxNiAtMSAxOSAtMyA0IC02IC0yIC01IC0xM3oiLz4mI3hhOzxwYXRoIGQ9Ik00NzUwIDE0OTkgYzAgLTUgNSAtNyAxMCAtNCA2IDMgMTAgOCAxMCAxMSAwIDIgLTQgNCAtMTAgNCAtNSAwIC0xMCYjMTA7LTUgLTEwIC0xMXoiLz4mI3hhOzxwYXRoIGQ9Ik0zMzExIDI1MzMgYzAgLTQyIDI5IC0xMjUgNDQgLTEzMCA2IC0xIDIwIDEzIDMzIDMyIDEyIDE5IDI5IDM1IDM3JiMxMDszNSAyOCAwIDE3IDQwIC0xNSA1MSAtMTYgNiAtMzIgMTkgLTM1IDMwIC00IDEzIC0xNiAxOSAtMzYgMTkgLTI3IDAgLTI5IC0zJiMxMDstMjggLTM3eiIvPiYjeGE7PHBhdGggZD0iTTM0MTcgMjI2MSBjLTIwIC0xMyAtMjUgLTIxIC0xNyAtMjYgNyAtNCAxNiAtMiAyMCA1IDQgNyAxMiAxMCAxNyA3JiMxMDs1IC0zIDkgMyA5IDE0IDAgMTAgMCAxOSAtMSAxOSAwIDAgLTEzIC05IC0yOCAtMTl6Ii8+JiN4YTs8cGF0aCBkPSJNMzU3MiAyMTI0IGMtMzAgLTIxIC0yOCAtNDAgOCAtNTggMjkgLTE0IDMwIC0xNCAzNiA5IDEzIDUzIC03IDc2JiMxMDstNDQgNDl6Ii8+JiN4YTs8cGF0aCBkPSJNMzM4MiAyMTA0IGM0IC0yMSAyMiAtMjMgMjYgLTEgMiAxMCAtMyAxNyAtMTMgMTcgLTEwIDAgLTE1IC02IC0xMyYjMTA7LTE2eiIvPiYjeGE7PHBhdGggZD0iTTMzMzAgMjAwNiBjMCAtMiA3IC05IDE1IC0xNiAxMiAtMTAgMTUgLTEwIDE1IDQgMCA5IC03IDE2IC0xNSAxNiYjMTA7LTggMCAtMTUgLTIgLTE1IC00eiIvPiYjeGE7PHBhdGggZD0iTTMzNzAgMTk1MSBjMCAtMTMgMjcgLTIxIDQ1IC0xNSA4IDQgMTIgMTAgOSAxNSAtNyAxMiAtNTQgMTIgLTU0IDB6Ii8+JiN4YTs8L2c+JiN4YTs8L3N2Zz4=;" vertex="1" parent="1">
          <mxGeometry x="250" y="806" width="244.14" height="260" as="geometry" />
        </mxCell>
      </root>
    </mxGraphModel>
  </diagram>
</mxfile>
